<svg id="Layer_5" enable-background="new 0 0 64 64" height="512" viewBox="0 0 64 64" width="512" xmlns="http://www.w3.org/2000/svg"><g><g><g><path d="m30 36h2 6v4h-12v-4z" fill="#aab2bd"/></g><g><path d="m38 40 6 14-6-4-5.99 4-6-4-6.01 4 6-14z" fill="#ccd1d9"/></g><g><path d="m44 54-3 8h-5l2-12z" fill="#cf9e76"/></g><g><path d="m38 50-2 12h-8l-1.99-12 6 4z" fill="#d3a06c"/></g><g><path d="m26.01 50 1.99 12h-5l-3-8z" fill="#cf9e76"/></g><g><path d="m30 6v4c0 2.76-1.12 5.26-2.93 7.07-1.12 1.12-2.51 1.98-4.07 2.47-.95.3-1.95.46-3 .46v-4c0-3.6 1.91-6.76 4.77-8.52 1.52-.94 3.31-1.48 5.23-1.48z" fill="#ffeaa7"/></g><g><path d="m20 16v4c-1.05 0-2.05-.16-3-.46-1.56-.49-2.95-1.35-4.07-2.47-1.81-1.81-2.93-4.31-2.93-7.07v-4c1.92 0 3.71.54 5.23 1.48 2.86 1.76 4.77 4.92 4.77 8.52z" fill="#ffeaa7"/></g><g><path d="m23.06 4.18c.82.95 1.4 2.08 1.71 3.3-2.86 1.76-4.77 4.92-4.77 8.52 0-3.6-1.91-6.76-4.77-8.52.61-2.45 2.36-4.51 4.77-5.48 1.2.48 2.24 1.24 3.06 2.18z" fill="#fcd770"/></g><g><path d="m44 16v4c-1.05 0-2.05-.16-3-.46-1.56-.49-2.95-1.35-4.07-2.47-1.81-1.81-2.93-4.31-2.93-7.07v-4c1.92 0 3.71.54 5.23 1.48 2.86 1.76 4.77 4.92 4.77 8.52z" fill="#ff826e"/></g><g><path d="m54 6v4c0 2.76-1.12 5.26-2.93 7.07-1.12 1.12-2.51 1.98-4.07 2.47-.95.3-1.95.46-3 .46v-4c0-3.6 1.91-6.76 4.77-8.52 1.52-.94 3.31-1.48 5.23-1.48z" fill="#ff826e"/></g><g><path d="m47.06 4.18c.82.95 1.4 2.08 1.71 3.3-2.86 1.76-4.77 4.92-4.77 8.52 0-3.6-1.91-6.76-4.77-8.52.61-2.45 2.36-4.51 4.77-5.48 1.2.48 2.24 1.24 3.06 2.18z" fill="#fc6e51"/></g><g><path d="m23 19.54v1.46c0 .83-.34 1.58-.88 2.12s-1.29.88-2.12.88c-1.66 0-3-1.34-3-3v-1.46c.95.3 1.95.46 3 .46s2.05-.16 3-.46z" fill="#a0d468"/></g><g><path d="m47 19.54v1.46c0 .83-.34 1.58-.88 2.12s-1.29.88-2.12.88c-1.66 0-3-1.34-3-3v-1.46c.95.3 1.95.46 3 .46s2.05-.16 3-.46z" fill="#a0d468"/></g><g><path d="m18 28h4c0 3.31-2.69 6-6 6h-4c0-3.31 2.69-6 6-6z" fill="#b4dd7f"/></g><g><path d="m50 35h-4c-3.31 0-6-2.69-6-6h4c3.31 0 6 2.69 6 6z" fill="#b4dd7f"/></g></g><path d="m54 5c-1.665 0-3.239.383-4.655 1.048-.906-2.247-2.694-4.064-4.973-4.976l-.372-.149-.372.148c-2.28.912-4.067 2.729-4.973 4.977-1.416-.665-2.99-1.048-4.655-1.048h-1v5c0 4.653 2.909 8.631 7 10.236v.764c0 1.75 1.137 3.225 2.705 3.766-.681 1.003-2.504 2.062-4.298 3.093-3.161 1.818-6.697 3.86-7.306 7.141h-.188c-.515-3.233-3.463-5.277-6.1-7.097-1.559-1.075-3.032-2.103-3.578-3.118 1.599-.524 2.765-2.013 2.765-3.785v-.764c4.091-1.605 7-5.583 7-10.236v-5h-1c-1.665 0-3.239.383-4.655 1.048-.906-2.247-2.694-4.064-4.973-4.976l-.372-.149-.372.148c-2.28.912-4.067 2.729-4.973 4.977-1.416-.665-2.99-1.048-4.655-1.048h-1v5c0 4.653 2.909 8.631 7 10.236v.764c0 1.904 1.34 3.495 3.125 3.897.207.771.668 1.46 1.292 2.103h-2.417c-3.86 0-7 3.14-7 7v1h5c3.512 0 6.42-2.602 6.917-5.979.251.176.504.352.76.529 2.29 1.58 4.648 3.207 5.201 5.45h-3.878v4.795l-6.077 14.18 3.384 9.025h19.386l3.384-9.025-6.077-14.18v-4.795h-5.843c.668-2.117 3.367-3.747 5.892-5.202.398 3.485 3.361 6.202 6.951 6.202h5v-1c0-3.86-3.14-7-7-7h-1.962c1.374-.924 2.454-1.908 2.823-3.099 1.792-.395 3.139-1.992 3.139-3.901v-.764c4.091-1.605 7-5.583 7-10.236v-5zm-25 5c0 4.625-3.506 8.446-8 8.945v-2.945c0-4.625 3.506-8.446 8-8.945zm-9-6.91c1.685.791 2.98 2.234 3.599 3.982-1.55 1.115-2.797 2.619-3.599 4.372-.802-1.753-2.049-3.257-3.599-4.372.619-1.748 1.914-3.191 3.599-3.982zm-9 6.91v-2.945c4.494.499 8 4.32 8 8.945v2.945c-4.494-.499-8-4.32-8-8.945zm7 11v-.191c.329.061.662.11 1 .14v.051h1 1v-.051c.338-.031.671-.08 1-.14v.191c0 1.103-.897 2-2 2s-2-.897-2-2zm-2 12h-2.899c.464-2.279 2.485-4 4.899-4h2.899c-.464 2.279-2.484 4-4.899 4zm22 15.798-5.992 4-5.997-4-3.769 2.508 4.417-10.306h10.682l4.415 10.302zm-1.366 3.316-1.481 8.886h-6.305l-1.473-8.889 4.634 3.091zm-15.419 2.279 4.062-2.703 1.544 9.31h-3.128zm19.092 6.607h-3.127l1.552-9.31 4.053 2.702zm-3.307-22h-10v-2h10zm11.899-5h-2.899c-2.415 0-4.435-1.721-4.899-4h2.899c2.415 0 4.435 1.721 4.899 4zm-4.899-30.91c1.685.791 2.98 2.234 3.599 3.982-1.55 1.115-2.797 2.619-3.599 4.372-.802-1.753-2.049-3.257-3.599-4.372.619-1.748 1.914-3.191 3.599-3.982zm-9 6.91v-2.945c4.494.499 8 4.32 8 8.945v2.945c-4.494-.499-8-4.32-8-8.945zm11 11c0 1.103-.897 2-2 2s-2-.897-2-2v-.191c.329.061.662.11 1 .14v.051h1 1v-.051c.338-.031.671-.08 1-.14zm7-11c0 4.625-3.506 8.446-8 8.945v-2.945c0-4.625 3.506-8.446 8-8.945z"/></g></svg>