<svg height="512pt" viewBox="-135 0 512 512.00984" width="512pt" xmlns="http://www.w3.org/2000/svg"><path d="m193.515625 366.941406c-7.195313-.351562-14.351563-1.234375-21.417969-2.644531-22.015625-4.179687-46.761718-14.675781-50.945312-40.019531-1.472656 9-5.992188 17.222656-12.796875 23.296875-16.128907 14.589843-42.925781 18.515625-59.5625 19.367187-1.824219.121094-3.511719-.945312-4.183594-2.644531-.703125-1.855469-.074219-3.957031 1.535156-5.117187 12.945313-11.296876 21.167969-27.042969 23.042969-44.121094h103.933594c1.871094 17.078125 10.097656 32.824218 23.039062 44.121094 1.550782 1.09375 2.195313 3.074218 1.582032 4.871093-.609376 1.792969-2.332032 2.972657-4.226563 2.890625zm0 0" fill="#549414"/><path d="m172.097656 364.296875c-22.015625-4.179687-46.761718-14.675781-50.945312-40.019531-1.621094 9.8125-2.132813-5.890625-8.53125 0-6.402344-5.890625-15.445313 9.8125-17.066406 0-4.183594 25.34375-28.929688 35.839844-50.945313 40.019531-.703125-1.855469-.074219-3.957031 1.535156-5.117187 12.945313-11.296876 21.167969-27.042969 23.042969-44.121094h78.335938c1.871093 17.078125 10.09375 32.824218 23.039062 44.121094 1.609375 1.160156 2.238281 3.261718 1.535156 5.117187zm0 0" fill="#60a917"/><path d="m233.707031 225.460938v1.449218c-.851562 51.542969-41.898437 98.988282-112.554687 97.367188-4.269532.101562-8.539063-.011719-12.796875-.34375-79.703125-5.03125-116.394531-75.605469-92.589844-136.105469 17.410156-50.859375-5.460937-73.558594-6.484375-118.015625v-.683594c-.035156-3.082031 1.605469-5.9375 4.28125-7.460937 2.679688-1.527344 5.972656-1.480469 8.605469.125.214843.078125.417969.195312.597656.339843 6.332031 4.726563 13.207031 8.679688 20.480469 11.777344.511718.253906 1.023437.425782 1.621094.679688.851562.429687 1.707031.855468 2.730468 1.28125v-.171875c.867188-15.222657-.105468-30.492188-2.902344-45.480469-.789062-2.894531-.183593-5.988281 1.644532-8.367188 1.824218-2.378906 4.65625-3.765624 7.65625-3.75 17.074218.285157 33.949218 3.757813 49.75 10.238282 6 2.324218 11.816406 5.09375 17.40625 8.277344l.769531-1.28125c9.195313-9.523438 20.386719-16.894532 32.769531-21.585938 5.105469-2.128906 10.386719-3.816406 15.785156-5.035156 2.640626-.605469 5.414063.082031 7.46875 1.851562 2.054688 1.765625 3.144532 4.40625 2.941407 7.109375-.390625 11.089844 1.226562 22.164063 4.777343 32.679688.941407 3.160156 1.964844 6.230469 3.074219 9.046875 6.484375-2.558594 12.628907-5.035156 18.261719-7.339844 5.117188-2.046875 9.898438-4.011719 14.335938-5.632812 2.578124-.964844 5.464843-.640626 7.761718.878906 2.296875 1.523437 3.726563 4.050781 3.84375 6.800781 1.621094 50.347656-24.746094 80.128906-6.402344 133.71875 4.738282 11.980469 7.171876 24.75 7.167969 37.632813zm0 0" fill="#c81e1e"/><path d="m22.167969 61.792969c.214843.078125.417969.195312.597656.339843 6.332031 4.726563 13.207031 8.679688 20.480469 11.777344.511718.253906 1.023437.425782 1.621094.679688.851562.429687 1.707031.855468 2.730468 1.28125v-.171875c.867188-15.222657-.105468-30.492188-2.902344-45.480469-1.019531-3.871094.4375-7.96875 3.667969-10.328125 16.574219 2.820313 32.539063 8.480469 47.191407 16.726563l.765624-1.28125c2.285157-2.523438 4.769532-4.863282 7.425782-6.996094 6 2.324218 11.816406 5.09375 17.40625 8.277344l.769531-1.28125c9.195313-9.523438 20.386719-16.894532 32.769531-21.585938.5 1.242188.703125 2.585938.59375 3.925781-.277344 14.300781 2.398438 28.503907 7.851563 41.726563 8.109375-3.15625 15.617187-6.230469 22.527343-9.046875 3.585938-1.363281.597657 10.582031 3.757813 9.386719 4.777344-1.792969 16.296875-12.285157 17.578125-7.679688.203125.664062.316406 1.355469.339844 2.046875 1.621094 50.347656-24.746094 80.128906-6.398438 133.71875 4.738282 11.980469 7.167969 24.75 7.167969 37.632813v1.449218c-.769531 48.300782-36.949219 93.101563-99.753906 97.023438-79.703125-5.03125-116.394531-75.605469-92.589844-136.105469 17.410156-50.859375-5.460937-73.558594-6.484375-118.015625zm0 0" fill="#f44335"/><path d="m233.707031 225.460938c-.679687-21.417969-16.382812-42.753907-38.570312-62.464844-39.167969-34.902344-98.644531-64.683594-132.179688-80.128906-6.058593-2.898438-11.265625-5.203126-15.359375-6.996094v-.171875c9.460938 3.546875 19.367188 5.757812 29.4375 6.570312 27.085938 1.5 54.195313-2.355469 79.789063-11.347656v-.085937c11.261719-3.5 22.015625-7.507813 31.914062-11.433594 6.484375-2.558594 12.628907-5.035156 18.261719-7.339844 5.117188-2.046875 9.898438-4.011719 14.335938-5.632812 2.578124-.964844 5.464843-.640626 7.761718.878906 2.296875 1.523437 3.726563 4.050781 3.84375 6.800781 1.621094 50.347656-24.746094 80.128906-6.402344 133.71875 4.738282 11.980469 7.171876 24.75 7.167969 37.632813zm0 0" fill="#bb193b"/><path d="m195.136719 162.996094c-39.167969-34.902344-98.644531-64.683594-132.179688-80.128906 4.691407 0 9.386719-.167969 14.078125-.597657 27.085938 1.5 54.195313-2.355469 79.789063-11.347656v-.085937c11.261719-3.5 22.015625-7.507813 31.914062-11.433594 6.484375-2.558594 12.628907-5.035156 18.261719-7.339844.203125.664062.316406 1.355469.339844 2.046875 1.367187 41.984375-16.808594 69.71875-12.203125 108.886719zm0 0" fill="#ef314c"/><path d="m156.824219 70.835938v.085937c-25.59375 8.992187-52.703125 12.847656-79.789063 11.347656-10.070312-.8125-19.976562-3.023437-29.4375-6.570312.867188-15.222657-.105468-30.492188-2.902344-45.480469-.789062-2.894531-.183593-5.988281 1.644532-8.367188 1.824218-2.378906 4.65625-3.765624 7.65625-3.75 23.574218.519532 46.648437 6.882813 67.15625 18.515626 14.863281 7.839843 27.222656 19.695312 35.671875 34.21875zm0 0" fill="#bb193b"/><path d="m131.222656 70.835938v.085937c-17.578125 5.8125-35.753906 9.621094-54.1875 11.347656-10.070312-.8125-19.976562-3.023437-29.4375-6.570312.867188-15.222657-.105468-30.492188-2.902344-45.480469-1.019531-3.871094.4375-7.96875 3.667969-10.328125 16.574219 2.820313 32.539063 8.480469 47.191407 16.726563 14.859374 7.839843 27.21875 19.695312 35.667968 34.21875zm0 0" fill="#ef314c"/><path d="m188.738281 59.402344c-9.898437 3.925781-20.652343 7.933594-31.914062 11.433594-1.34375-2.535157-2.886719-4.960938-4.609375-7.253907-8.257813-11.148437-18.863282-20.351562-31.0625-26.964843l.769531-1.28125c9.195313-9.523438 20.386719-16.894532 32.769531-21.585938 5.105469-2.128906 10.386719-3.816406 15.785156-5.035156 2.640626-.605469 5.414063.082031 7.46875 1.851562 2.054688 1.765625 3.144532 4.40625 2.941407 7.109375-.277344 14.300781 2.394531 28.503907 7.851562 41.726563zm0 0" fill="#c81e1e"/><path d="m121.152344 512.011719c-4.710938 0-8.53125-3.824219-8.53125-8.535157v-179.167968c0-4.710938 3.820312-8.53125 8.53125-8.53125 4.714844 0 8.535156 3.820312 8.535156 8.53125v179.167968c0 4.710938-3.820312 8.535157-8.535156 8.535157zm0 0"/><path d="m124.523438 332.851562c-1.121094 0-2.242188-.015624-3.371094-.042968-43.394532 1.035156-80.714844-16.28125-102.320313-47.257813-20.359375-29.625-24.492187-67.496093-11-100.816406 10.101563-29.523437 5.4375-48.441406.027344-70.351563-4.15625-14.691406-6.53125-29.832031-7.082031-45.089843-.09375-6.464844 3.476562-12.429688 9.222656-15.402344 5.742188-2.972656 12.671875-2.441406 17.898438 1.367187 52.296874 38.953126 125.210937 9.46875 173.453124-10.046874 6.113282-2.46875 11.785157-4.757813 16.921876-6.710938 5.152343-1.964844 10.9375-1.328125 15.539062 1.714844 4.597656 3.042968 7.449219 8.117187 7.652344 13.628906.160156 18.519531-2.152344 36.980469-6.878906 54.890625-5.535157 24.785156-10.316407 46.191406.023437 76.367187 13.363281 33.230469 9.183594 70.945313-11.128906 100.441407-21.046875 30.183593-56.972657 47.300781-98.957031 47.308593zm-3.371094-17.109374h.195312c38.230469.984374 69.554688-13.3125 88.132813-39.957032 17.082031-24.9375 20.507812-56.785156 9.117187-84.785156-12.03125-35.097656-6.257812-60.964844-.667968-85.988281 4.375-16.511719 6.554687-33.523438 6.476562-50.601563-5.101562 1.957032-10.660156 4.199219-16.652344 6.625-48.652344 19.675782-130.074218 52.589844-190.046875 7.917969.660157 13.988281 2.917969 27.859375 6.726563 41.339844 5.542968 22.464843 11.277344 45.699219-.59375 80.34375-11.515625 28.085937-8.136719 60.085937 8.992187 85.148437 18.578125 26.644532 49.898438 40.859375 88.125 39.957032zm0 0"/><path d="m233.707031 226.953125h-8.53125c-.394531-40.375-67.765625-93.101563-184.832031-145.003906l2.902344-8.046875 3.457031-7.800782-3.457031 7.800782 4.015625-7.550782c88.617187 39.28125 194.375 98.949219 194.984375 160.085938zm0 0"/><path d="m47.609375 84.367188c-.207031 0-.414063-.007813-.621094-.023438-2.257812-.164062-4.359375-1.214844-5.839843-2.925781-1.484376-1.710938-2.222657-3.941407-2.0625-6.199219.796874-14.226562-.058594-28.496094-2.546876-42.527344-1.558593-5.472656-.453124-11.363281 2.980469-15.902344 3.429688-4.542968 8.796875-7.210937 14.488281-7.203124 39.578126 0 91.679688 21.480468 110.363282 57.425781 1.46875 2.714843 1.363281 6.007812-.28125 8.617187-1.644532 2.609375-4.570313 4.128906-7.648438 3.972656-3.082031-.152343-5.839844-1.960937-7.214844-4.722656-15.484374-29.789062-61.480468-48.230468-95.21875-48.230468-.359374 0-.695312.175781-.902343.464843 2.871093 16.277344 3.878906 32.828125 3.007812 49.332031-.324219 4.460938-4.035156 7.917969-8.503906 7.921876zm0 0"/><path d="m188.738281 67.933594c-3.511719.003906-6.667969-2.144532-7.949219-5.414063-5.914062-14.472656-8.777343-30.007812-8.402343-45.636719-16.644531 3.867188-31.910157 12.226563-44.128907 24.171876-3.15625 3.5-8.554687 3.777343-12.054687.621093-3.5-3.160156-3.777344-8.554687-.621094-12.054687 14.523438-14.617188 32.929688-24.765625 53.039063-29.246094 5.390625-1.132812 11.003906.328125 15.152344 3.953125 4.023437 3.53125 6.109374 8.777344 5.613281 14.105469-.140625 12.980468 2.339843 25.855468 7.296875 37.851562 1.027344 2.625.691406 5.589844-.898438 7.921875s-4.226562 3.726563-7.046875 3.726563zm0 0"/><path d="m107.679688 298.800781c-.285157 0-.570313-.015625-.859376-.039062-26.066406-2.617188-45.402343-12.476563-57.472656-29.320313-19.582031-27.316406-12.601562-63.191406-11.007812-70.105468.648437-3.011719 2.871094-5.4375 5.8125-6.351563s6.144531-.171875 8.386718 1.941406c2.238282 2.113281 3.167969 5.269531 2.425782 8.257813-.796875 3.46875-7.378906 34.507812 8.25 56.320312 9.089844 12.675782 24.332031 20.175782 45.300781 22.273438 4.527344.449218 7.902344 4.371094 7.679687 8.914062-.226562 4.542969-3.972656 8.109375-8.519531 8.109375zm0 0"/><path d="m61.421875 170.800781c0 4.710938-3.820313 8.53125-8.535156 8.53125-4.710938 0-8.53125-3.820312-8.53125-8.53125 0-4.714843 3.820312-8.535156 8.53125-8.535156 4.714843 0 8.535156 3.820313 8.535156 8.535156zm0 0"/><path d="m48.453125 375.484375c-5.300781 0-10.03125-3.324219-11.832031-8.308594-1.996094-5.371093-.199219-11.414062 4.40625-14.824219 11.128906-9.988281 18.15625-23.753906 19.726562-38.625.738282-4.65625 5.109375-7.832031 9.761719-7.09375 4.65625.734376 7.832031 5.105469 7.097656 9.761719-2.039062 14.90625-7.957031 29.019531-17.160156 40.925781 20.027344-2.648437 48.304687-10.609374 52.28125-34.445312.453125-3.046875 2.519531-5.613281 5.398437-6.714844 2.882813-1.097656 6.128907-.554687 8.5 1.414063 2.371094 1.972656 3.492188 5.070312 2.933594 8.101562-4.878906 29.285157-34.160156 47.425781-80.339844 49.792969-.257812.015625-.515624.015625-.773437.015625zm-.101563-17.066406-.078124.007812zm0 0"/><path d="m193.796875 375.484375c-.269531 0-.53125-.007813-.796875-.023437-46.101562-2.359376-75.382812-20.5-80.261719-49.785157-.558593-3.03125.5625-6.128906 2.933594-8.101562 2.371094-1.96875 5.617187-2.511719 8.5-1.414063 2.878906 1.101563 4.945313 3.667969 5.398437 6.714844 3.976563 23.851562 32.28125 31.808594 52.269532 34.445312-9.199219-11.910156-15.113282-26.019531-17.152344-40.925781-.734375-4.65625 2.441406-9.027343 7.097656-9.761719 4.65625-.738281 9.023438 2.4375 9.761719 7.09375 1.5625 14.851563 8.574219 28.597657 19.679687 38.582032 4.636719 3.40625 6.453126 9.472656 4.457032 14.867187-1.8125 5-6.570313 8.328125-11.886719 8.308594zm0 0"/><path d="m121.152344 409.609375h-25.597656c-4.714844 0-8.535157-3.820313-8.535157-8.53125 0-4.714844 3.820313-8.535156 8.535157-8.535156h25.597656c4.714844 0 8.535156 3.820312 8.535156 8.535156 0 4.710937-3.820312 8.53125-8.535156 8.53125zm0 0"/><path d="m146.753906 469.34375h-25.601562c-4.710938 0-8.53125-3.820312-8.53125-8.535156 0-4.710938 3.820312-8.53125 8.53125-8.53125h25.601562c4.710938 0 8.53125 3.820312 8.53125 8.53125 0 4.714844-3.820312 8.535156-8.53125 8.535156zm0 0"/></svg>