<svg xmlns="http://www.w3.org/2000/svg" width="30.204" height="30.204" viewBox="0 0 30.204 30.204">
  <g id="angry" transform="translate(-40.795 -43.102)">
    <circle id="angry-2" data-name="angry" cx="15.102" cy="15.102" r="15.102" transform="translate(40.795 43.102)" fill="#fb2b3a"/>
    <path id="Path_4419" data-name="Path 4419" d="M343.041,79.629a15.1,15.1,0,0,1-27.2,9.041,15.1,15.1,0,0,0,21.706-20.694A15.068,15.068,0,0,1,343.041,79.629Z" transform="translate(-272.042 -21.425)" fill="#e41f2d"/>
    <path id="Path_4423" data-name="Path 4423" d="M347.789,127.145a1.04,1.04,0,0,1-1.04-1.04v-2.083a1.04,1.04,0,1,1,2.08,0v2.083A1.04,1.04,0,0,1,347.789,127.145Z" transform="translate(-298.665 -68.803)" fill="#444"/>
    <path id="Path_4424" data-name="Path 4424" d="M445.479,127.145a1.04,1.04,0,0,1-1.04-1.04v-2.083a1.04,1.04,0,1,1,2.08,0v2.083A1.04,1.04,0,0,1,445.479,127.145Z" transform="translate(-382.808 -68.803)" fill="#444"/>
    <path id="Path_4425" data-name="Path 4425" d="M357.025,175.785a1.04,1.04,0,0,1-.863-1.618,7.753,7.753,0,0,1,12.794-.146,1.04,1.04,0,1,1-1.7,1.2,5.672,5.672,0,0,0-9.363.107A1.04,1.04,0,0,1,357.025,175.785Z" transform="translate(-306.621 -109.921)" fill="#444"/>
  </g>
</svg>
