<svg xmlns="http://www.w3.org/2000/svg" width="87.503" height="89" viewBox="0 0 87.503 89">
  <g id="bouquet" transform="translate(-0.469)">
    <path id="Path_26" data-name="Path 26" d="M391.5,178.824l7.6,7.011-7.6,7.011-7.6-7.011Zm0,0" transform="translate(-311.121 -145.101)" fill="#cc3831"/>
    <path id="Path_27" data-name="Path 27" d="M328.469,170.561c0,5.833,5.129,10.561,11.443,10.561h7.946a2.539,2.539,0,0,0,2.414-3.319,49.341,49.341,0,0,0-10.36-17.8C333.6,160,328.469,164.728,328.469,170.561Zm0,0" transform="translate(-266.144 -129.827)" fill="#d64740"/>
    <path id="Path_28" data-name="Path 28" d="M328.469,170.561c0-5.833,5.129-10.561,11.443-10.561h7.946a2.539,2.539,0,0,1,2.414,3.319,49.341,49.341,0,0,1-10.36,17.8c-6.314,0-11.443-4.728-11.443-10.561Zm0,0" transform="translate(-266.144 -129.827)" fill="#e3584b"/>
    <path id="Path_29" data-name="Path 29" d="M219.293,7.6,226.3,0l7.011,7.6-7.011,7.6Zm0,0" transform="translate(-177.557)" fill="#cc3831"/>
    <path id="Path_30" data-name="Path 30" d="M211.03,41.659c5.832,0,10.561-5.129,10.561-11.443V22.269a2.54,2.54,0,0,0-3.319-2.414,49.341,49.341,0,0,0-17.8,10.36c0,6.314,4.728,11.443,10.561,11.443Zm0,0" transform="translate(-162.283 -16.011)" fill="#d64740"/>
    <path id="Path_31" data-name="Path 31" d="M211.03,41.659c-5.833,0-10.561-5.129-10.561-11.443V22.269a2.539,2.539,0,0,1,3.319-2.414,49.338,49.338,0,0,1,17.8,10.36c0,6.314-4.729,11.443-10.561,11.443Zm0,0" transform="translate(-162.283 -16.011)" fill="#e3584b"/>
    <path id="Path_32" data-name="Path 32" d="M360.469,56H371.03V66.561H360.469Zm0,0" transform="translate(-292.11 -45.439)" fill="#cc3831"/>
    <path id="Path_33" data-name="Path 33" d="M307.2,84.7a11.247,11.247,0,0,0,15.907,0l5.339-5.339a2.75,2.75,0,0,0-.641-4.375l-6.318-3.4a18.6,18.6,0,0,0-7.141-2.145A8.958,8.958,0,0,0,307.2,84.7Zm0,0" transform="translate(-246.752 -56.314)" fill="#d64740"/>
    <path id="Path_34" data-name="Path 34" d="M307.763,55.624a11.247,11.247,0,0,1,0-15.907l5.339-5.339a2.752,2.752,0,0,1,4.375.642l3.4,6.318a18.6,18.6,0,0,1,2.145,7.14,8.958,8.958,0,0,1-15.261,7.146Zm0,0" transform="translate(-246.67 -27.237)" fill="#e3584b"/>
    <path id="Path_35" data-name="Path 35" d="M112.469,88.873,120.2,24a100.928,100.928,0,0,1,55.335,57.882l.3.813Zm0,0" transform="translate(-90.879 -19.474)" fill="#cccfd1"/>
    <path id="Path_36" data-name="Path 36" d="M120.2,24l-7.728,64.873s19.613-6.035,25.647-25.647C145.73,38.483,120.2,24,120.2,24Zm0,0" transform="translate(-90.878 -19.474)" fill="#d6d9db"/>
    <path id="Path_37" data-name="Path 37" d="M8.469,360l19.613,19.613V360Zm0,0" transform="translate(-6.491 -292.11)" fill="#d6d9db"/>
    <path id="Path_38" data-name="Path 38" d="M37.532,300.97a6.235,6.235,0,0,0-4.044-4.256l-10.656-3.559-2.658-9.745a5.892,5.892,0,1,0-8.716,6.6l8.031,4.818C17.313,298.04,10.658,306.4.469,306.4v3.017c8.41,0,14.577-4.761,18.3-8.8-1.509,4.933-4.63,11.042-10.939,11.831l.374,2.994c9.268-1.159,12.837-10.733,14.16-16.549l3.671,6.73a6.248,6.248,0,0,0,4.828,3.221,6.435,6.435,0,0,0,.653.035,6.238,6.238,0,0,0,6.021-7.909Zm-24.52-13.545a2.874,2.874,0,1,1,4.253-3.221l1.881,6.9Zm20.949,17.317a3.228,3.228,0,0,1-5.28-.557l-3.922-7.2,7.783,2.6a3.229,3.229,0,0,1,1.42,5.164Zm0,0" transform="translate(0 -226.442)" fill="#e3584b"/>
  </g>
</svg>
