<svg id="Brush_1_" xmlns="http://www.w3.org/2000/svg" width="309.557" height="10.633" viewBox="0 0 309.557 10.633">
  <path id="Brush_1_2" data-name="Brush_1_" d="M309.025,3.453a1.565,1.565,0,0,0-.769.28.777.777,0,0,1-.559.186,4.3,4.3,0,0,0-1.072.3c-1,.42-3.426.513-3.426.14.023-.373-2.727-.443-2.867-.07-.07.163-.4.21-.839.14-.559-.093-.723-.047-.723.256,0,.326-.14.35-.7.21-.443-.117-.7-.07-.7.07-.583.233-.676-.07-.42-.513.35-.629-.117-1.165-.559-.629a1.4,1.4,0,0,1-.979.4c-1.026.047-1.072,0-.792-.466.28-.489,1.4-.723,3.752-.769.839-.023,2.191-.07,3.03-.093a34.139,34.139,0,0,1,4.2-.023c1.1.023,2.424.047,2.96.047C309.584,2.94,309.957,3.36,309.025,3.453Zm-15.639.326c.653.536-.21.909-1.818.792a5.681,5.681,0,0,0-1.818.047.492.492,0,0,1-.466.047,4.137,4.137,0,0,0-1.352.07c-.653.093-1.771.21-2.494.233a6.152,6.152,0,0,0-1.748.256,5.461,5.461,0,0,1-2.144-.047c-1.305-.186-1.818-.163-2.168.047-.326.21-.723.233-1.538.07a4,4,0,0,0-1.492-.117,25.792,25.792,0,0,1-3.17.117,22.344,22.344,0,0,0-3.589.233,15.064,15.064,0,0,1-3.146.093c-2.028-.117-2.331-.07-2.424.28-.746-.047-2.913,0-3.17.35-.536.676-1.305.7-1.538.047-.21-.583-.21-.583-1.189-.233-.792.28-1.072.28-1.422.047-.326-.233-.676-.233-1.4-.07A3.424,3.424,0,0,1,254,6.133a9,9,0,0,0-3.962.792c-.3.4-1.165.443-1.375.07s-.956-.3-1.4.117c-.326.3-.653.326-1.934.14a19.9,19.9,0,0,0-4.988-.163,22.292,22.292,0,0,0-3.03.233,2.845,2.845,0,0,1-1.468-.14c-.839-.28-1.026-.28-1.538.093-.653.466-1.422.536-1.771.163-.21-.233-1.585-.163-4.638.233a19.124,19.124,0,0,1-3.659-.023c-.163-.023-1.445.093-2.867.256s-3.146.326-3.846.35-2.214.14-3.356.233c-3.729.373-8.181.256-8.577-.233-.489-.629-.21-.956.769-.932.489.023.979-.07,1.049-.21.093-.14.35-.163.583-.093a1.254,1.254,0,0,0,.909-.093,3.443,3.443,0,0,1,1.305-.233,1.77,1.77,0,0,0,.956-.186A1.322,1.322,0,0,1,212,6.343c.722.023.722.023.163-.583-.559-.583-.583-.583-2.61-.373-1.585.163-2.144.14-2.471-.093-.536-.373-1.282-.4-1.515-.07a.415.415,0,0,1-.489.117,1.669,1.669,0,0,0-.932.07c-.42.14-.7.14-.909-.047s-.746-.163-2,.163c-1.119.28-1.795.35-1.934.186-.373-.4-.7-.28-.769.3-.047.513.023.559.723.466.653-.093.839,0,1.142.536.42.676,1.119.676,1.655,0,.489-.606,2-.117,1.795.606-.14.513-.093.559.513.606,1.282.047,0,.42-1.865.536-1.585.093-1.841.047-2.1-.3-.256-.373-.4-.4-1.165-.163-.653.186-.956.186-1.189-.023a.622.622,0,0,0-.746-.07c-2.121,1.1-2.191,1.119-6.712,1.1-2.4,0-4.685.023-5.081.093a24.881,24.881,0,0,1-2.8.117,9.841,9.841,0,0,0-2.657.28,1.511,1.511,0,0,1-.816.163,22.97,22.97,0,0,0-3.31,0c-1.655.047-8.251.233-10.954.3a51.905,51.905,0,0,0-5.594.326c-.4.093-5.687.047-11.77-.163-6.083-.186-13.868-.42-17.294-.489a45.541,45.541,0,0,1-6.5-.373c-.186-.163-.909-.14-2.121.023a6.925,6.925,0,0,1-2.051.117c-.42-.28-13.984-.513-19.182-.326-2.96.117-5.943.163-6.643.14s-2.75-.047-4.545-.047-5.454-.07-8.157-.14c-9.672-.3-11.7-.326-14.917-.186-9.975.489-14.986.35-15.779-.443a4.371,4.371,0,0,0-.676-.536,1.269,1.269,0,0,0-.233.513c-.163.956-2.494.792-2.424-.186.047-.653-.676-.653-2.028,0a2.524,2.524,0,0,1-1.072.326,26.5,26.5,0,0,0-3.17-.326c-1.655-.117-4.358-.326-6.013-.489A205.876,205.876,0,0,0,9.762,7.835c-8.81.42-8.088.583-9.276-2.307C-.166,3.966-.166,3.966.533,3.36a6.174,6.174,0,0,1,1.841-.909c.629-.186,2.191-.629,3.5-1C9.926.283,24.143.12,31.811,1.192A35.55,35.55,0,0,0,41.88,1.169c.7-.093,2.121-.21,3.146-.256s2.75-.163,3.846-.233A171.511,171.511,0,0,1,66.585.167c3.007.023,5.78,0,6.176-.047,2.657-.3,16.175-.023,29.577.606,4.475.21,10.3.35,12.912.3,7.971-.14,9.066-.14,19.928.07,5.757.117,11.374.117,12.469.023s5.664-.14,10.139-.07,9.043.047,10.139-.023c1.1-.093,2.144-.14,2.331-.14s3.543.023,7.458.047c6.666.023,14.8.21,20.137.466,1.282.07,2.634.117,3.03.14,2.424.117,4.1.326,4.312.559.186.186.466.163,1-.093a2.166,2.166,0,0,1,2.121.023c.117.117.513.047.932-.14.513-.256.816-.28,1.1-.093a.758.758,0,0,0,.7.07,4.8,4.8,0,0,1,2.7.373.63.63,0,0,0,.7,0,2.418,2.418,0,0,1,2.96.093c.932.513,1.515.489,1.538-.07.023-.7,1.748-.4,2.214.4.256.466.839.256.7-.256.583-.07,1.119-.023,1.515-.07.489-.093.723-.023.723.163,0,.21.28.256,1.1.14a11.656,11.656,0,0,1,1.981-.07,3.247,3.247,0,0,0,1.352-.163c.35-.186.769-.14,1.655.14a2.186,2.186,0,0,0,2.634-.466c.326-.256.583-.256,1.165-.07a17.808,17.808,0,0,0,5.314.14.434.434,0,0,1,.536.117c.117.186.629.233,1.631.163q1.468-.1,1.608.14c.117.186.28.186.629.023a.621.621,0,0,1,.769.023c.21.186.653.186,1.562.023a29.86,29.86,0,0,1,5.92-.023c.256.023,1.142-.023,1.981-.07s1.888-.07,2.331-.047,1.4.07,2.1.117c1.119.07,7.225.047,10.651-.047a4.226,4.226,0,0,1,1.492.163.843.843,0,0,0,.746-.023.6.6,0,0,1,.769.07c.233.21.513.233,1.165.023A3.675,3.675,0,0,1,275,2.777a24.479,24.479,0,0,0,2.494.326c.839.047,2.494.186,3.729.28a6.405,6.405,0,0,0,2.96-.163c.676-.28.956-.28,2.634.117a6.746,6.746,0,0,0,2.144.28A13.474,13.474,0,0,1,293.386,3.779Zm-262.95.536c-.792-.023-1.049.3-.816.979.256.746.816.839,1.189.163C31.158,4.875,30.972,4.315,30.436,4.315ZM57.612,5.5c-.256-.163-1.189.3-1.212.583C57.379,6.3,57.961,5.714,57.612,5.5Zm63.838.21c-.21-.373-.7-.163-.723.326-.023.373.186.42.629.163A.337.337,0,0,0,121.45,5.714Zm1.795-.186a5.588,5.588,0,0,1-.583-.047C122.289,6.017,122.825,6.04,123.244,5.527Zm1.212.4a.45.45,0,0,0-.023.559C125.016,5.947,124.783,5.62,124.456,5.923Zm10,.559a2.285,2.285,0,0,0-.629-.233,9.535,9.535,0,0,1-1.119-.3c-.42-.14-.513-.07-.629.606-.07.42-.117.792-.117.792C132.474,7.788,134.432,7.135,134.455,6.483Zm7.272.4c-.093-.536-.186-.583-.723-.466-1.981.443-2.8.42-3.263-.047-.862-.909-1.259-.373-.606.862.583,1.119,1.142,1.375,1.748.792a2.794,2.794,0,0,1,1.422-.3C141.7,7.718,141.843,7.625,141.727,6.879Zm1.678.886c.14-.35-.07-.466-.28-.466C143.009,7.648,143.219,7.741,143.405,7.765Zm5.431-.489c.117-.326-.186-.35-.956-.093-.466.163-.606.117-.723-.186-.513.163-.629.186-.862-.023a3.93,3.93,0,0,0-2.424-.093c-.07.07-.047.373.093.629a.827.827,0,0,0,1.328.28c.186-.186.4-.163.723.023C146.738,8.231,148.6,7.858,148.836,7.275Zm1.562-.326c-.14.21,0,.326.14.326C150.863,7.275,150.793,7.112,150.4,6.949Zm3.846-.14c-.536-.186-.932-.023-.956.42,0,.326.629.606,1.1.466S154.756,7,154.243,6.809Zm14.917-.023c.023-.676-.559-.792-1.282-.28-.583.42-1.049.42-1.026,0,0-.256-.163-.3-.746-.163-.42.093-1.165.233-1.631.28-.956.14-1.072.326-.536,1,.3.4.489.42,1.212.256.606-.14.862-.14.932.047.117.42.862.326,1.329-.163a1.658,1.658,0,0,1,1.1-.443C169.043,7.369,169.159,7.275,169.159,6.786Zm11.91-.746A4.263,4.263,0,0,0,178.6,6.3c-.233-.583-.746-.723-2.051-.629-.839.07-1.165.21-1.259.513-.14.489-1,.559-1,.07.023-.4-.7-.723-.909-.42-.28.42-1.422.536-1.562.14-.117-.3-.21-.3-.7.093-1.142.932.466,2,1.678,1.1a.787.787,0,0,1,.816.023,9.157,9.157,0,0,0,1.468.536c1.212.373,1.468.35,2.144-.07a1.11,1.11,0,0,1,1.282-.07,5,5,0,0,0,2.75,0C181.7,7.369,181.535,6.18,181.069,6.04Zm1.165-.047c.536.163.862-.21.513-.583-.163-.186-.35-.14-.606.093C181.838,5.807,181.838,5.877,182.235,5.993Zm15.1.117c-.07-.233-.606-.35-2.1-.42A9.859,9.859,0,0,1,193,5.434c-.14-.093-.35.093-.489.42-.28.676-.606.746-.816.186q-.14-.385-.629-.28a5.992,5.992,0,0,1-1.795-.14c-.839-.163-1.4-.163-1.538-.023a1.441,1.441,0,0,1-.886.233,2.867,2.867,0,0,0-1.235.326c-.513.326-.629.3-1.142-.047-.653-.466-1.072-.326-1.1.35,0,.326-.117.42-.35.326-.513-.21-.443.256.093.559a2.056,2.056,0,0,0,1.445.047,9.919,9.919,0,0,1,1.678-.186,1.8,1.8,0,0,0,1.049-.3,3.423,3.423,0,0,1,2.89-.186c.256.21.326.373.163.466-.443.256-.28.583.256.583a3.607,3.607,0,0,1,1,.163.791.791,0,0,0,.909-.3,1.648,1.648,0,0,1,1.352-.443c.723.023.909-.047.909-.42.023-.583.536-.746,1.7-.513C197.244,6.413,197.407,6.39,197.338,6.11Zm20.347-.979a.769.769,0,0,0-.606.233c-1.282-.769-4.149.28-3.683,1.165.35.676,1.7.629,2.75-.07a3.671,3.671,0,0,1,1.305-.629C218.011,5.83,218.244,5.154,217.685,5.131Zm7.9.489c.023-.629-2.471-1.142-3.286-.676-.4.233.21.7,1,.769.42.047.932.117,1.119.163C224.863,6.017,225.586,5.854,225.586,5.62Zm4.172-.769a.537.537,0,0,0-.909.42.388.388,0,0,0,.42.443A.525.525,0,0,0,229.758,4.851Zm1.189.326c.023-.42-.489-.35-.653.07C230.783,5.527,230.946,5.364,230.946,5.178Zm1.748.186a.429.429,0,0,0-.07-.513c-.3-.326-1.049-.07-.932.326C231.832,5.551,232.485,5.69,232.694,5.364Zm7.249-.956a.343.343,0,0,0-.35.35C239.9,5.108,240.059,4.968,239.943,4.409Zm2.447-.35c-.256.023-.489.163-.489.3-.023.28.559.443.792.233C243.019,4.269,242.88,4.012,242.39,4.059Zm16.9.7c.233-.35-.233-.769-.676-.629a.549.549,0,0,0-.373.489C258.216,5.014,259.055,5.131,259.288,4.758Z" transform="translate(-0.002 0.003)" fill="#f31b66"/>
</svg>
