<svg id="calendar" xmlns="http://www.w3.org/2000/svg" width="28.667" height="28.667" viewBox="0 0 28.667 28.667">
  <g id="Group_1397" data-name="Group 1397">
    <g id="Group_1396" data-name="Group 1396">
      <path id="Path_4328" data-name="Path 4328" d="M25.307,2.24H23.964V0h-2.24V2.24H6.943V0H4.7V2.24H3.359A3.363,3.363,0,0,0,0,5.6V25.307a3.363,3.363,0,0,0,3.359,3.359H25.307a3.363,3.363,0,0,0,3.359-3.359V5.6A3.363,3.363,0,0,0,25.307,2.24Zm1.12,23.068a1.121,1.121,0,0,1-1.12,1.12H3.359a1.121,1.121,0,0,1-1.12-1.12V10.526H26.427Zm0-17.021H2.24V5.6a1.121,1.121,0,0,1,1.12-1.12H4.7v2.24h2.24V4.479H21.724v2.24h2.24V4.479h1.344a1.121,1.121,0,0,1,1.12,1.12Z" fill="#d2d2d2"/>
    </g>
  </g>
  <g id="Group_1399" data-name="Group 1399" transform="translate(4.393 12.715)">
    <g id="Group_1398" data-name="Group 1398" transform="translate(0 0)">
      <rect id="Rectangle_37" data-name="Rectangle 37" width="2" height="2" transform="translate(-0.059 -0.048)" fill="#d2d2d2"/>
    </g>
  </g>
  <g id="Group_1401" data-name="Group 1401" transform="translate(8.554 12.715)">
    <g id="Group_1400" data-name="Group 1400" transform="translate(0 0)">
      <rect id="Rectangle_38" data-name="Rectangle 38" width="2" height="2" transform="translate(-0.22 -0.048)" fill="#d2d2d2"/>
    </g>
  </g>
  <g id="Group_1403" data-name="Group 1403" transform="translate(13.409 12.715)">
    <g id="Group_1402" data-name="Group 1402" transform="translate(0 0)">
      <rect id="Rectangle_39" data-name="Rectangle 39" width="2" height="2" transform="translate(-0.075 -0.048)" fill="#d2d2d2"/>
    </g>
  </g>
  <g id="Group_1405" data-name="Group 1405" transform="translate(17.57 12.715)">
    <g id="Group_1404" data-name="Group 1404" transform="translate(0 0)">
      <rect id="Rectangle_40" data-name="Rectangle 40" width="2" height="2" transform="translate(-0.236 -0.048)" fill="#d2d2d2"/>
    </g>
  </g>
  <g id="Group_1407" data-name="Group 1407" transform="translate(22.425 12.715)">
    <g id="Group_1406" data-name="Group 1406" transform="translate(0 0)">
      <rect id="Rectangle_41" data-name="Rectangle 41" width="2" height="2" transform="translate(-0.091 -0.048)" fill="#d2d2d2"/>
    </g>
  </g>
  <g id="Group_1409" data-name="Group 1409" transform="translate(4.393 17.57)">
    <g id="Group_1408" data-name="Group 1408" transform="translate(0 0)">
      <rect id="Rectangle_42" data-name="Rectangle 42" width="2" height="2" transform="translate(-0.059 0.097)" fill="#d2d2d2"/>
    </g>
  </g>
  <g id="Group_1411" data-name="Group 1411" transform="translate(8.554 17.57)">
    <g id="Group_1410" data-name="Group 1410" transform="translate(0 0)">
      <rect id="Rectangle_43" data-name="Rectangle 43" width="2" height="2" transform="translate(-0.22 0.097)" fill="#d2d2d2"/>
    </g>
  </g>
  <g id="Group_1413" data-name="Group 1413" transform="translate(13.409 17.57)">
    <g id="Group_1412" data-name="Group 1412" transform="translate(0 0)">
      <rect id="Rectangle_44" data-name="Rectangle 44" width="2" height="2" transform="translate(-0.075 0.097)" fill="#d2d2d2"/>
    </g>
  </g>
  <g id="Group_1415" data-name="Group 1415" transform="translate(17.57 17.57)">
    <g id="Group_1414" data-name="Group 1414" transform="translate(0 0)">
      <rect id="Rectangle_45" data-name="Rectangle 45" width="2" height="2" transform="translate(-0.236 0.097)" fill="#d2d2d2"/>
    </g>
  </g>
  <g id="Group_1417" data-name="Group 1417" transform="translate(4.393 21.731)">
    <g id="Group_1416" data-name="Group 1416" transform="translate(0 0)">
      <rect id="Rectangle_46" data-name="Rectangle 46" width="2" height="2" transform="translate(-0.059 -0.065)" fill="#d2d2d2"/>
    </g>
  </g>
  <g id="Group_1419" data-name="Group 1419" transform="translate(8.554 21.731)">
    <g id="Group_1418" data-name="Group 1418" transform="translate(0 0)">
      <rect id="Rectangle_47" data-name="Rectangle 47" width="2" height="2" transform="translate(-0.22 -0.065)" fill="#d2d2d2"/>
    </g>
  </g>
  <g id="Group_1421" data-name="Group 1421" transform="translate(13.409 21.731)">
    <g id="Group_1420" data-name="Group 1420" transform="translate(0 0)">
      <rect id="Rectangle_48" data-name="Rectangle 48" width="2" height="2" transform="translate(-0.075 -0.065)" fill="#d2d2d2"/>
    </g>
  </g>
  <g id="Group_1423" data-name="Group 1423" transform="translate(17.57 21.731)">
    <g id="Group_1422" data-name="Group 1422" transform="translate(0 0)">
      <rect id="Rectangle_49" data-name="Rectangle 49" width="2" height="2" transform="translate(-0.236 -0.065)" fill="#d2d2d2"/>
    </g>
  </g>
  <g id="Group_1425" data-name="Group 1425" transform="translate(22.425 17.57)">
    <g id="Group_1424" data-name="Group 1424" transform="translate(0 0)">
      <rect id="Rectangle_50" data-name="Rectangle 50" width="2" height="2" transform="translate(-0.091 0.097)" fill="#d2d2d2"/>
    </g>
  </g>
</svg>
