<svg xmlns="http://www.w3.org/2000/svg" width="65.849" height="80.524" viewBox="0 0 65.849 80.524">
  <g id="clap" transform="translate(-0.146 0.001)">
    <path id="Path_39" data-name="Path 39" d="M61.317,90.979a3.315,3.315,0,0,0-4.5,1.326l-2.463,4.482L40.59,89.758l5.549-10.191a3.868,3.868,0,1,0-6.793-3.7l-4.493,8.25-.265.485L28.509,95.763l-5.41-4.7a6.229,6.229,0,0,0-8.808-.045,1.508,1.508,0,0,0-.01,2.132l3.036,3.067c4.327,4.372,5.205,6.054,4.366,11.469l-1.275,7.578,21.351,11.628,2.668-4.9a7.219,7.219,0,0,0,5.817-3.749L61.586,97.417l1.057-1.942a3.315,3.315,0,0,0-1.326-4.5" transform="translate(-11.093 -59.8)" fill="#c1c1c1"/>
    <path id="Path_40" data-name="Path 40" d="M55.787,85.449l.621-1.141a4.612,4.612,0,0,0-6.259,1.846l0,0L48.3,89.528,36.839,83.677l4.912-9.02a5.166,5.166,0,0,0-2.066-7.008h0a5.165,5.165,0,0,0-7.008,2.067l-4.493,8.25h0l-.265.485-5.306,9.742-4.192-3.644-.852.98.923-.914A7.528,7.528,0,0,0,7.848,84.56a2.806,2.806,0,0,0-.02,3.969L10.864,91.6a22.021,22.021,0,0,1,3.394,4.01,6.305,6.305,0,0,1,.883,3.446,19.19,19.19,0,0,1-.27,2.9l1.283.2-1.28-.215L13.6,109.514a1.3,1.3,0,0,0,.659,1.356L35.609,122.5a1.3,1.3,0,0,0,1.761-.519l2.668-4.9-1.141-.621.1,1.3a8.519,8.519,0,0,0,6.86-4.424L57.2,92.508l1.057-1.941a4.613,4.613,0,0,0-1.845-6.259l-1.242,2.281a2.013,2.013,0,0,1,1.053,1.774,1.991,1.991,0,0,1-.246.962l-1.057,1.941L43.575,112.088a5.92,5.92,0,0,1-4.774,3.076,1.293,1.293,0,0,0-1.043.674L35.71,119.6l-19.4-10.565,1.122-6.665,0-.016a21.8,21.8,0,0,0,.3-3.3A8.965,8.965,0,0,0,16.5,94.3,24.254,24.254,0,0,0,12.71,89.77L9.673,86.7l-.06-.147.062-.148h0a4.93,4.93,0,0,1,6.971.035l.071.067,5.41,4.7a1.3,1.3,0,0,0,1.993-.36L30.2,79.692l.265-.484h0l4.493-8.25a2.566,2.566,0,0,1,3.486-1.027h0a2.566,2.566,0,0,1,1.027,3.486L33.92,83.606a1.3,1.3,0,0,0,.55,1.777l13.767,7.03a1.3,1.3,0,0,0,1.729-.531L52.428,87.4l0,0a2.016,2.016,0,0,1,2.736-.807Z" transform="translate(-5.563 -54.27)" fill="#54596e"/>
    <path id="Path_41" data-name="Path 41" d="M150.117,88.3l10.835-19.9a3.868,3.868,0,1,0-6.793-3.7L143.324,84.6" transform="translate(-115.941 -50.763)" fill="#c1c1c1"/>
    <path id="Path_42" data-name="Path 42" d="M145.725,83.394l10.836-19.9h0a5.166,5.166,0,1,0-9.074-4.942l-10.836,19.9a1.3,1.3,0,1,0,2.281,1.242l10.836-19.9a2.57,2.57,0,0,1,4.826,1.232,2.535,2.535,0,0,1-.314,1.225h0l-10.835,19.9a1.3,1.3,0,1,0,2.281,1.242Zm0,0" transform="translate(-110.409 -45.234)" fill="#54596e"/>
    <path id="Path_43" data-name="Path 43" d="M37.575,299l-6.343,11.647L6.968,297.428l6.343-11.647Z" transform="translate(-5.525 -231.417)" fill="#fff"/>
    <path id="Path_44" data-name="Path 44" d="M32.05,293.468l-1.141-.621-5.722,10.506L3.205,291.381l5.1-9.365,23.123,12.593.621-1.141-1.141-.621,1.141.621.621-1.141L8.408,279.114a1.3,1.3,0,0,0-1.762.519L.3,291.28a1.3,1.3,0,0,0,.519,1.761l24.263,13.214a1.3,1.3,0,0,0,1.762-.519l6.343-11.647a1.3,1.3,0,0,0-.519-1.762Z" transform="translate(0 -225.89)" fill="#54596e"/>
    <path id="Path_45" data-name="Path 45" d="M46.949,323.031a2.211,2.211,0,1,0-1.5,2.745A2.211,2.211,0,0,0,46.949,323.031Zm0,0" transform="translate(-34.392 -260.297)" fill="#54596e"/>
    <path id="Path_46" data-name="Path 46" d="M129.968,105.4a3.315,3.315,0,0,0-4.669.429l-3.286,3.921-12.143-9.567,7.421-8.921a3.868,3.868,0,0,0-5.947-4.947l-6.008,7.221-.353.424-8.127,9.771-4.4-5.665a6.228,6.228,0,0,0-8.632-1.751,1.508,1.508,0,0,0-.424,2.09l2.384,3.6c3.4,5.127,3.932,6.948,2.059,12.1l-2.72,7.187,18.691,15.549,3.568-4.289A7.221,7.221,0,0,0,113.82,130l15.163-18.228,1.414-1.7a3.317,3.317,0,0,0-.429-4.67" transform="translate(-67.217 -68.769)" fill="#c1c1c1"/>
    <path id="Path_47" data-name="Path 47" d="M124.441,99.876l.83-1a4.615,4.615,0,0,0-6.5.6l0,0-2.477,2.955-10.1-7.962,6.567-7.9a5.167,5.167,0,0,0-.667-7.276h0a5.168,5.168,0,0,0-7.277.669h0l-6.008,7.221-.354.425h0l-7.094,8.528-3.4-4.388-1.026.8,1.083-.718a7.527,7.527,0,0,0-10.432-2.116,2.808,2.808,0,0,0-.788,3.889l2.384,3.6a28.26,28.26,0,0,1,2.255,3.849,6.6,6.6,0,0,1,.655,2.787,12.866,12.866,0,0,1-.989,4.3l1.22.444-1.215-.46-2.72,7.188a1.3,1.3,0,0,0,.383,1.458l18.692,15.549a1.3,1.3,0,0,0,1.829-.168l3.568-4.289-1-.831-.155,1.289a8.549,8.549,0,0,0,7.588-3.009l15.164-18.228,1.413-1.7a4.615,4.615,0,0,0-.6-6.5l-.83,1-.831,1a2.017,2.017,0,0,1,.261,2.841h0l-1.414,1.7-15.163,18.228a5.949,5.949,0,0,1-5.28,2.091,1.294,1.294,0,0,0-1.154.458l-2.737,3.29L81.143,115.356l2.392-6.322.006-.016a15.307,15.307,0,0,0,1.146-5.189,9.2,9.2,0,0,0-.881-3.844,30.367,30.367,0,0,0-2.463-4.226l-2.384-3.6-.034-.114.093-.175a4.928,4.928,0,0,1,6.832,1.386l.057.079L90.3,99a1.3,1.3,0,0,0,2.024.034l8.127-9.77h0l.353-.425h0l6.008-7.221a2.571,2.571,0,0,1,3.619-.332h0a2.571,2.571,0,0,1,.332,3.619l-7.421,8.92a1.3,1.3,0,0,0,.2,1.851l12.142,9.567a1.3,1.3,0,0,0,1.8-.187l3.286-3.921,0,0a2.016,2.016,0,0,1,2.84-.26h0Z" transform="translate(-61.69 -63.242)" fill="#54596e"/>
    <path id="Path_48" data-name="Path 48" d="M214.686,107.891l14.488-17.417a3.868,3.868,0,0,0-5.948-4.947l-14.488,17.417" transform="translate(-168.912 -68.129)" fill="#c1c1c1"/>
    <path id="Path_49" data-name="Path 49" d="M210.158,103.193l14.488-17.417a5.167,5.167,0,0,0-.667-7.276h0a5.166,5.166,0,0,0-7.276.667h0L202.214,96.585a1.3,1.3,0,0,0,2,1.661L218.7,80.828h0a2.57,2.57,0,0,1,3.952,3.286l-14.488,17.417a1.3,1.3,0,1,0,2,1.662Zm0,0" transform="translate(-163.386 -62.6)" fill="#54596e"/>
    <path id="Path_50" data-name="Path 50" d="M247.252,146.068l12.092-14.536c1.128-1.357.712-3.563-.93-4.93s-3.889-1.373-5.017-.018L241.3,141.121" transform="translate(-195.283 -101.686)" fill="#c1c1c1"/>
    <path id="Path_51" data-name="Path 51" d="M242.724,141.37l12.092-14.536h0a4.122,4.122,0,0,0,.935-2.654,5.432,5.432,0,0,0-2.033-4.106,5.587,5.587,0,0,0-3.545-1.329,4.235,4.235,0,0,0-3.3,1.48L234.78,134.762a1.3,1.3,0,0,0,2,1.661l12.092-14.536a1.637,1.637,0,0,1,1.3-.545,3.005,3.005,0,0,1,1.883.73h0a2.859,2.859,0,0,1,1.1,2.109,1.517,1.517,0,0,1-.334.993l-12.092,14.536a1.3,1.3,0,0,0,2,1.662Zm0,0" transform="translate(-189.756 -96.157)" fill="#54596e"/>
    <path id="Path_52" data-name="Path 52" d="M71.9,286.559l-8.481,10.2L42.18,279.085l8.481-10.2Z" transform="translate(-34.038 -217.739)" fill="#fff"/>
    <path id="Path_53" data-name="Path 53" d="M66.373,281.032l-1-.831-7.651,9.2L38.481,273.39l6.82-8.2L65.543,282.03l.83-1-1-.831,1,.831.831-1-21.24-17.669a1.3,1.3,0,0,0-1.829.168l-8.482,10.194a1.3,1.3,0,0,0,.168,1.829l21.241,17.669a1.3,1.3,0,0,0,1.829-.168l8.481-10.194a1.3,1.3,0,0,0-.168-1.829Z" transform="translate(-28.511 -212.212)" fill="#54596e"/>
    <path id="Path_54" data-name="Path 54" d="M132.3,340.7l-6.694,8.048,5.2,4.326,6.694-8.046Z" transform="translate(-101.597 -275.891)" fill="#e6e6e9"/>
    <path id="Path_55" data-name="Path 55" d="M135.91,363.453l-6.694,8.046-5.2-4.326-.375.449,5.948,4.948,7.068-8.5Z" transform="translate(-100.002 -294.313)" fill="#54596e"/>
    <path id="Path_56" data-name="Path 56" d="M84.07,308.354a2.21,2.21,0,1,0-2,2.4A2.211,2.211,0,0,0,84.07,308.354Zm0,0" transform="translate(-64.387 -248.069)" fill="#54596e"/>
    <g id="Group_8" data-name="Group 8" transform="translate(13.872 -0.001)">
      <path id="Path_57" data-name="Path 57" d="M81.907,53.971l-7.9-2.592a1.3,1.3,0,0,0-.81,2.469l7.9,2.592a1.3,1.3,0,0,0,.809-2.469" transform="translate(-72.302 -41.552)" fill="#55a6ff"/>
      <path id="Path_58" data-name="Path 58" d="M110.768,19.761l-3.553-5.434a1.3,1.3,0,1,0-2.174,1.421l3.553,5.434a1.3,1.3,0,0,0,2.174-1.421" transform="translate(-98.641 -11.125)" fill="#55a6ff"/>
      <path id="Path_59" data-name="Path 59" d="M150.689,9.654l1.694-8.089a1.3,1.3,0,0,0-2.543-.532l-1.693,8.089a1.3,1.3,0,1,0,2.542.532" transform="translate(-133.696 0.001)" fill="#55a6ff"/>
    </g>
  </g>
</svg>
