<svg xmlns="http://www.w3.org/2000/svg" width="30.216" height="30.342" viewBox="0 0 30.216 30.342">
  <g id="happy" transform="translate(0.012 -42.965)">
    <circle id="smile" cx="15" cy="15" r="15" transform="translate(-0.012 42.965)" fill="#fac600"/>
    <path id="Path_4418" data-name="Path 4418" d="M48.858,79.629a15.1,15.1,0,0,1-27.2,9.041A15.1,15.1,0,0,0,43.363,67.976,15.067,15.067,0,0,1,48.858,79.629Z" transform="translate(-18.654 -21.425)" fill="#e0ae10"/>
    <path id="Path_4420" data-name="Path 4420" d="M53.6,127.145a1.04,1.04,0,0,1-1.04-1.04v-2.083a1.04,1.04,0,1,1,2.08,0v2.083A1.04,1.04,0,0,1,53.6,127.145Z" transform="translate(-45.272 -68.803)" fill="#444"/>
    <path id="Path_4421" data-name="Path 4421" d="M151.291,127.145a1.04,1.04,0,0,1-1.04-1.04v-2.083a1.04,1.04,0,1,1,2.08,0v2.083A1.04,1.04,0,0,1,151.291,127.145Z" transform="translate(-129.416 -68.803)" fill="#444"/>
    <path id="Path_4422" data-name="Path 4422" d="M67.995,181.4a7.75,7.75,0,0,1-6.346-3.3,1.04,1.04,0,0,1,1.7-1.2,5.673,5.673,0,0,0,9.363-.107,1.04,1.04,0,0,1,1.729,1.156,7.758,7.758,0,0,1-6.322,3.446Z" transform="translate(-52.937 -114.754)" fill="#444"/>
  </g>
</svg>
