<svg xmlns="http://www.w3.org/2000/svg" xmlns:xlink="http://www.w3.org/1999/xlink" width="62" height="60" viewBox="0 0 62 60">
  <defs>
    <filter id="Rectangle_273" x="0" y="0" width="62" height="60" filterUnits="userSpaceOnUse">
      <feOffset dy="3" input="SourceAlpha"/>
      <feGaussianBlur stdDeviation="3" result="blur"/>
      <feFlood flood-opacity="0.161"/>
      <feComposite operator="in" in2="blur"/>
      <feComposite in="SourceGraphic"/>
    </filter>
  </defs>
  <g id="insta" transform="translate(-347 -7547)">
    <g transform="matrix(1, 0, 0, 1, 347, 7547)" filter="url(#Rectangle_273)">
      <rect id="Rectangle_273-2" data-name="Rectangle 273" width="44" height="42" rx="5" transform="translate(9 6)" fill="#fff"/>
    </g>
    <g id="Group_1356" data-name="Group 1356" transform="translate(368.12 7564.912)">
      <g id="Group_1355" data-name="Group 1355" transform="translate(0 0)">
        <g id="Group_1352" data-name="Group 1352">
          <path id="Path_4264" data-name="Path 4264" d="M85.246,587.513H77.937a5.89,5.89,0,0,1-5.882-5.884v-6.44a5.889,5.889,0,0,1,5.882-5.882h7.309a5.889,5.889,0,0,1,5.883,5.882v6.44A5.89,5.89,0,0,1,85.246,587.513Zm-7.309-16.9a4.58,4.58,0,0,0-4.575,4.575v6.44a4.58,4.58,0,0,0,4.575,4.576h7.309a4.581,4.581,0,0,0,4.576-4.576v-6.44a4.58,4.58,0,0,0-4.576-4.575Z" transform="translate(-72.055 -569.307)" fill="#f31b66"/>
        </g>
        <g id="Group_1353" data-name="Group 1353" transform="translate(4.301 3.866)">
          <path id="Path_4265" data-name="Path 4265" d="M80.42,582.592a5.237,5.237,0,1,1,5.236-5.236A5.242,5.242,0,0,1,80.42,582.592Zm0-9.166a3.929,3.929,0,1,0,3.929,3.93A3.934,3.934,0,0,0,80.42,573.426Z" transform="translate(-75.184 -572.119)" fill="#f31b66"/>
        </g>
        <g id="Group_1354" data-name="Group 1354" transform="translate(13.608 2.94)">
          <path id="Path_4266" data-name="Path 4266" d="M84.126,572.533a1.086,1.086,0,1,1-1.086-1.087A1.086,1.086,0,0,1,84.126,572.533Z" transform="translate(-81.954 -571.446)" fill="#f31b66"/>
        </g>
      </g>
    </g>
  </g>
</svg>
