<svg id="pin" xmlns="http://www.w3.org/2000/svg" width="40.719" height="58.138" viewBox="0 0 40.719 58.138">
  <path id="Path_4258" data-name="Path 4258" d="M27.989,12a7.432,7.432,0,1,0,7.432,7.432A7.442,7.442,0,0,0,27.989,12Zm0,12.741A5.309,5.309,0,1,1,33.3,19.432,5.315,5.315,0,0,1,27.989,24.741Z" transform="translate(-7.44 0.741)" fill="#fff"/>
  <path id="Path_4259" data-name="Path 4259" d="M42.961,5.964a20.36,20.36,0,0,0-28.795,0c-7.117,7.116-8,20.5-1.915,28.616L28.564,58.138,44.852,34.613C50.963,26.468,50.078,13.08,42.961,5.964Zm.169,27.408L28.564,54.407,13.975,33.339c-5.52-7.36-4.729-19.451,1.695-25.874a18.237,18.237,0,0,1,25.791,0C47.884,13.888,48.675,25.979,43.13,33.372Z" transform="translate(-8.203 0)" fill="#fff"/>
</svg>
