<svg xmlns="http://www.w3.org/2000/svg" width="17.171" height="16.372" viewBox="0 0 17.171 16.372">
  <path id="rate-star" d="M248.921-155.516v.235a5.38,5.38,0,0,1-.395.423q-1.94,1.69-3.889,3.369a.209.209,0,0,0-.08.241c.235.988.463,1.977.693,2.966q.269,1.157.538,2.315a.431.431,0,0,1-.405.576.752.752,0,0,1-.339-.119q-2.276-1.365-4.546-2.742a.255.255,0,0,0-.311-.008c-1.526.927-3.058,1.847-4.586,2.771a.462.462,0,0,1-.561.014.459.459,0,0,1-.149-.526c.406-1.733.806-3.467,1.215-5.2a.281.281,0,0,0-.108-.324q-1.969-1.695-3.927-3.4a3.817,3.817,0,0,1-.32-.356v-.235a.519.519,0,0,1,.444-.33q1.044-.083,2.087-.174c1.107-.1,2.214-.195,3.322-.286a.209.209,0,0,0,.2-.152c.326-.783.658-1.563.988-2.344q.554-1.31,1.108-2.621a.449.449,0,0,1,.5-.328.482.482,0,0,1,.374.343q1.038,2.468,2.08,4.935a.232.232,0,0,0,.228.17c.385.024.768.06,1.152.093,1.374.119,2.748.243,4.124.353A.588.588,0,0,1,248.921-155.516Z" transform="translate(-231.75 161.758)" fill="#fa0"/>
</svg>
