<?xml version="1.0" encoding="iso-8859-1"?>
<!-- Generator: Adobe Illustrator 19.0.0, SVG Export Plug-In . SVG Version: 6.00 Build 0)  -->
<svg version="1.1" id="Capa_1" xmlns="http://www.w3.org/2000/svg" xmlns:xlink="http://www.w3.org/1999/xlink" x="0px" y="0px"
	 viewBox="0 0 512.001 512.001" style="enable-background:new 0 0 512.001 512.001;" xml:space="preserve">
<g>
	<g>
		<path d="M265.599,403.124H15.045C6.736,403.124,0,409.86,0,418.168c0,8.309,6.736,15.045,15.045,15.045h250.555
			c8.309,0,15.045-6.736,15.045-15.045C280.644,409.86,273.908,403.124,265.599,403.124z"/>
	</g>
</g>
<g>
	<g>
		<path d="M295.386,339.306H15.045C6.736,339.306,0,346.042,0,354.35s6.736,15.045,15.045,15.045h280.341
			c8.309,0,15.045-6.736,15.045-15.045S303.694,339.306,295.386,339.306z"/>
	</g>
</g>
<g>
	<g>
		<path d="M253.436,276.231H15.045C6.736,276.231,0,282.966,0,291.275s6.736,15.045,15.045,15.045h238.392
			c8.309,0,15.045-6.736,15.045-15.045S261.745,276.231,253.436,276.231z"/>
	</g>
</g>
<g>
	<g>
		<path d="M287.12,212.307H15.045C6.736,212.307,0,219.043,0,227.352c0,8.309,6.736,15.045,15.045,15.045H287.12
			c8.309,0,15.045-6.736,15.045-15.045C302.165,219.043,295.429,212.307,287.12,212.307z"/>
	</g>
</g>
<g>
	<g>
		<path d="M190.835,149.232H15.045C6.736,149.232,0,155.968,0,164.277s6.736,15.045,15.045,15.045h175.79
			c8.309,0,15.045-6.736,15.045-15.045S199.143,149.232,190.835,149.232z"/>
	</g>
</g>
<g>
	<g>
		<path d="M219.921,85.168H15.045C6.736,85.168,0,91.904,0,100.213c0,8.309,6.736,15.045,15.045,15.045h204.876
			c8.309,0,15.045-6.736,15.045-15.045C234.966,91.904,228.23,85.168,219.921,85.168z"/>
	</g>
</g>
<g>
	<g>
		<path d="M497.514,112.417l-75.883-75.884l0.172-0.172c-9.699-9.698-22.451-14.523-35.19-14.482
			c-12.747-0.046-25.508,4.779-35.211,14.483c-0.632,0.632-1.182,1.312-1.677,2.019l-74.034,74.036
			c-19.315,19.315-19.315,50.743,0,70.059c9.658,9.658,22.343,14.487,35.03,14.487c9.255,0,18.505-2.583,26.584-7.723v251.342
			c0,27.316,22.223,49.54,49.54,49.54c27.317,0,49.54-22.223,49.54-49.54V189.539c7.965,4.94,17.031,7.423,26.103,7.423
			c12.686,0,25.372-4.828,35.03-14.487C516.829,163.16,516.829,131.732,497.514,112.417z"/>
	</g>
</g>
<g>
</g>
<g>
</g>
<g>
</g>
<g>
</g>
<g>
</g>
<g>
</g>
<g>
</g>
<g>
</g>
<g>
</g>
<g>
</g>
<g>
</g>
<g>
</g>
<g>
</g>
<g>
</g>
<g>
</g>
</svg>
