<svg xmlns="http://www.w3.org/2000/svg" xmlns:xlink="http://www.w3.org/1999/xlink" width="63" height="60" viewBox="0 0 63 60">
  <defs>
    <filter id="Rectangle_272" x="0" y="0" width="63" height="60" filterUnits="userSpaceOnUse">
      <feOffset dy="3" input="SourceAlpha"/>
      <feGaussianBlur stdDeviation="3" result="blur"/>
      <feFlood flood-opacity="0.161"/>
      <feComposite operator="in" in2="blur"/>
      <feComposite in="SourceGraphic"/>
    </filter>
  </defs>
  <g id="twiter" transform="translate(-286 -7547)">
    <g transform="matrix(1, 0, 0, 1, 286, 7547)" filter="url(#Rectangle_272)">
      <rect id="Rectangle_272-2" data-name="Rectangle 272" width="45" height="42" rx="5" transform="translate(9 6)" fill="#fff"/>
    </g>
    <g id="Group_1350" data-name="Group 1350" transform="translate(306.259 7564.913)">
      <g id="Group_1349" data-name="Group 1349" transform="translate(0 0)">
        <path id="Path_4260" data-name="Path 4260" d="M84.434,515.264Z" transform="translate(-62.745 -514.973)" fill="#f31b66"/>
        <path id="Path_4261" data-name="Path 4261" d="M93.96,517.691a3,3,0,0,1-.871.113l.015-.092a7.162,7.162,0,0,0,1.75-2c.065-.227-.012-.3-.013-.312l-1.461.621-1.221.552h0a4.876,4.876,0,0,0-3.551-1.463,4.34,4.34,0,0,0-4.6,4.022,5.909,5.909,0,0,0,.188,1.517c0,.117,0-.117,0,0a14.308,14.308,0,0,1-5.6-1.663c-3.686-1.867-3.916-3.159-3.916-3.159-.579.615-.877,2.649-.29,4.245a5.286,5.286,0,0,0,1.667,1.938h0a3.871,3.871,0,0,1-1.182-.194,2.625,2.625,0,0,1-.834-.406c-.36.877.363,2.442,1.609,3.566a6.635,6.635,0,0,0,2.055,1.065l-2.075.058c-.117,2.017,4.228,3.215,4.228,3.215h0a7.106,7.106,0,0,1-4.334,1.575,8.244,8.244,0,0,1-2.367-.348,11.277,11.277,0,0,0,7.7,2.761c7.756-.408,12.134-7.075,12.342-13.622l.012.014a5.508,5.508,0,0,0,1.14-.96,8,8,0,0,0,1.259-1.686S94.448,517.557,93.96,517.691Z" transform="translate(-73.153 -515.113)" fill="#f31b66"/>
        <path id="Path_4262" data-name="Path 4262" d="M84.434,515.264c0,.125,0,.013,0,0Z" transform="translate(-62.744 -514.974)" fill="#f31b66"/>
      </g>
    </g>
  </g>
</svg>
