<svg xmlns="http://www.w3.org/2000/svg" width="53.513" height="39.636" viewBox="0 0 53.513 39.636">
  <g id="delivery" transform="translate(-54.506 -27.021)">
    <path id="Path_4440" data-name="Path 4440" d="M93.531,31.106a.91.91,0,0,0,.91-.91V28.841H106.5V38a.91.91,0,0,0,1.439.74l4.5-3.218,4.5,3.218a.91.91,0,0,0,1.439-.74V28.841h12.056v36h-36v-.724a.91.91,0,0,0-1.82,0v1.634a.91.91,0,0,0,.91.91h37.816a.91.91,0,0,0,.91-.91V27.931a.91.91,0,0,0-.91-.91H93.531a.91.91,0,0,0-.91.91V30.2a.91.91,0,0,0,.91.91Zm23.03-2.265v7.39l-3.593-2.567a.91.91,0,0,0-1.058,0l-3.593,2.567v-7.39Z" transform="translate(-24.239)"/>
    <path id="Path_4441" data-name="Path 4441" d="M69.292,71.28A14.787,14.787,0,1,0,54.506,56.494,14.787,14.787,0,0,0,69.292,71.28Zm0-27.753A12.966,12.966,0,1,1,56.326,56.494,12.966,12.966,0,0,1,69.292,43.528Z" transform="translate(0 -9.339)"/>
    <g id="Group_1402" data-name="Group 1402" transform="translate(59.923 40.53)">
      <path id="Path_4442" data-name="Path 4442" d="M76.668,78.833a3.131,3.131,0,0,1-2.345-1.058l-4.155-4.709a3.128,3.128,0,1,1,4.69-4.139l1.792,2.031,5-5.752a3.128,3.128,0,1,1,4.722,4.1l-7.339,8.449a3.131,3.131,0,0,1-2.349,1.076Zm-4.156-9.145a1.307,1.307,0,0,0-.979,2.172l4.156,4.708a1.311,1.311,0,0,0,.98.442h.009a1.307,1.307,0,0,0,.977-.449l7.339-8.448A1.307,1.307,0,0,0,83.02,66.4l-5.678,6.537a.91.91,0,0,1-.684.313.864.864,0,0,1-.686-.308l-2.479-2.81A1.3,1.3,0,0,0,72.512,69.688Z" transform="translate(-69.385 -64.128)" fill="#f31b66"/>
      <path id="Path_4443" data-name="Path 4443" d="M168.812,106.8H165.32a.91.91,0,1,1,0-1.82h3.491a.91.91,0,0,1,0,1.82Z" transform="translate(-129.815 -90.11)" fill="#f31b66"/>
      <path id="Path_4444" data-name="Path 4444" d="M170.694,115.307h-5.379a.91.91,0,1,1,0-1.82h5.379a.91.91,0,0,1,0,1.82Z" transform="translate(-129.812 -95.517)" fill="#f31b66"/>
    </g>
    <path id="Path_4445" data-name="Path 4445" d="M167.779,107.5H156.342a.91.91,0,0,1-.91-.91V97.81a.91.91,0,0,1,.91-.91h11.437a.91.91,0,0,1,.91.91v8.778a.91.91,0,0,1-.91.91Zm-10.527-1.82h9.617V98.72h-9.617Z" transform="translate(-64.183 -44.439)" fill="#ebe7f2"/>
  </g>
</svg>
