<svg xmlns="http://www.w3.org/2000/svg" width="30.204" height="30.204" viewBox="0 0 30.204 30.204">
  <g id="fine" transform="translate(-20.398 -71.943)">
    <circle id="happy" cx="15.102" cy="15.102" r="15.102" transform="translate(20.398 71.943)" fill="#68ca44"/>
    <path id="Path_4414" data-name="Path 4414" d="M200.522,335.129a1.04,1.04,0,0,1-1.04-1.04v-2.083a1.04,1.04,0,1,1,2.08,0v2.083A1.04,1.04,0,0,1,200.522,335.129Z" transform="translate(-171.82 -247.946)" fill="#444"/>
    <path id="Path_4415" data-name="Path 4415" d="M298.213,335.129a1.04,1.04,0,0,1-1.04-1.04v-2.083a1.04,1.04,0,1,1,2.08,0v2.083A1.04,1.04,0,0,1,298.213,335.129Z" transform="translate(-255.964 -247.946)" fill="#444"/>
    <path id="Path_4416" data-name="Path 4416" d="M214.07,386.9H200.523a1.04,1.04,0,1,1,0-2.08H214.07a1.04,1.04,0,0,1,0,2.08Z" transform="translate(-171.82 -294.331)" fill="#444"/>
    <path id="Path_4417" data-name="Path 4417" d="M195.949,287.61a15.1,15.1,0,0,1-27.2,9.041,15.1,15.1,0,0,0,21.706-20.694A15.067,15.067,0,0,1,195.949,287.61Z" transform="translate(-145.348 -200.565)" fill="#4fc123"/>
  </g>
</svg>
