<!-- Generated by IcoMoon.io -->
<svg version="1.1" xmlns="http://www.w3.org/2000/svg" width="34" height="32" viewBox="0 0 34 32">
<title>heart-outline</title>
<path d="M17.198 32c-0.002 0-0.003 0-0.005 0-0.344 0-0.647-0.181-0.816-0.453l-0.002-0.004c-1.223-1.777-2.553-3.328-4.030-4.727l-0.013-0.012c-0.8-0.765-1.446-1.376-1.892-1.775l-0.172-0.151c-0.43-0.387-1.080-0.973-1.935-1.72-0.813-0.709-1.472-1.29-1.902-1.684-0.354-0.323-0.937-0.86-1.703-1.61-0.563-0.541-1.083-1.114-1.564-1.72l-0.027-0.035c-0.385-0.514-0.813-1.116-1.245-1.787-0.4-0.589-0.753-1.264-1.026-1.978l-0.023-0.068c-0.523-1.427-0.83-3.074-0.843-4.791l-0-0.005c0.001-2.62 1.064-4.991 2.781-6.707l0-0c1.732-1.707 4.108-2.763 6.731-2.771h0.001c0.009-0 0.019-0 0.030-0 1.566 0 3.042 0.386 4.338 1.068l-0.051-0.024c1.36 0.689 2.489 1.654 3.349 2.827l0.018 0.026c1.759-2.367 4.543-3.887 7.682-3.897h0.002c2.624 0.007 5 1.061 6.734 2.765l-0.001-0.001c1.718 1.718 2.781 4.091 2.781 6.713 0 0 0 0.001 0 0.001v-0c-0 0.875-0.094 1.727-0.271 2.549l0.014-0.079c-0.295 1.593-0.89 3.008-1.728 4.246l0.025-0.039c-0.504 0.772-0.905 1.343-1.261 1.794-0.519 0.63-1.040 1.197-1.589 1.735l-0.004 0.003c-0.669 0.669-1.223 1.204-1.646 1.591-0.205 0.186-0.459 0.406-0.752 0.662-0.32 0.279-0.678 0.59-1.078 0.948-1.376 1.221-2.298 2.064-2.924 2.654-0.674 0.629-1.524 1.515-2.525 2.635-0.899 1.005-1.755 2.103-2.533 3.257l-0.069 0.108c-0.175 0.278-0.481 0.46-0.829 0.46-0.011 0-0.022-0-0.033-0.001l0.002 0zM9.514 2.031c-0.035-0.001-0.076-0.001-0.118-0.001-2.035 0-3.873 0.841-5.186 2.195l-0.002 0.002c-1.354 1.3-2.195 3.125-2.195 5.146 0 0.037 0 0.073 0.001 0.11l-0-0.005c-0.003 0.087-0.004 0.188-0.004 0.29 0 0.966 0.146 1.898 0.416 2.776l-0.018-0.067 0.42 1.3c0.315 0.766 0.694 1.427 1.147 2.030l-0.017-0.023c0.095 0.141 0.184 0.27 0.261 0.389 0.292 0.423 0.593 0.794 0.919 1.14l-0.004-0.005 0.256 0.28c0.285 0.311 0.516 0.571 0.712 0.782 0.236 0.263 0.597 0.611 1.135 1.097l1.154 1.044 1.262 1.116c1.204 1.056 2.052 1.813 2.616 2.323s1.267 1.219 2.325 2.305c0.897 0.912 1.749 1.877 2.547 2.887l0.057 0.074c0.82-1.119 1.642-2.103 2.521-3.033l-0.014 0.015c0.992-1.059 1.789-1.863 2.433-2.452 0.745-0.688 1.623-1.479 2.616-2.36 1.988-1.77 3.462-3.173 4.263-4.062 1.556-1.6 2.677-3.63 3.169-5.894l0.015-0.080c0.105-0.558 0.167-1.203 0.172-1.862l0-0.004c0.001-0.033 0.001-0.071 0.001-0.11 0-2.026-0.842-3.856-2.195-5.158l-0.002-0.002c-1.356-1.346-3.223-2.177-5.285-2.177-1.494 0-2.886 0.437-4.055 1.189l0.030-0.018c-1.184 0.766-2.118 1.828-2.708 3.083l-0.019 0.045c-0.154 0.334-0.485 0.562-0.87 0.562-0.025 0-0.050-0.001-0.074-0.003l0.003 0c-0.013 0.001-0.029 0.001-0.045 0.001-0.382 0-0.709-0.231-0.851-0.561l-0.002-0.006c-0.625-1.305-1.575-2.368-2.749-3.11l-0.030-0.018c-1.119-0.734-2.491-1.171-3.965-1.171-0.015 0-0.030 0-0.045 0h0.002z"></path>
</svg>
