<!-- Generated by IcoMoon.io -->
<svg version="1.1" xmlns="http://www.w3.org/2000/svg" width="32" height="32" viewBox="0 0 32 32">
<title>search</title>
<path d="M31.040 32c-0.263-0.002-0.501-0.11-0.674-0.283l-7.778-7.776c-2.382 2.077-5.518 3.343-8.949 3.343-7.539 0-13.651-6.112-13.651-13.651s6.112-13.651 13.651-13.651c7.539 0 13.651 6.112 13.651 13.651 0 3.437-1.27 6.578-3.367 8.977l0.014-0.016 7.778 7.776c0.171 0.173 0.276 0.411 0.276 0.674s-0.105 0.5-0.276 0.674l0-0c-0.171 0.175-0.409 0.283-0.672 0.283-0.001 0-0.002 0-0.003 0h0zM13.638 1.92c-0 0-0.001 0-0.002 0-6.48 0-11.733 5.253-11.733 11.733s5.253 11.733 11.733 11.733c6.48 0 11.733-5.253 11.733-11.733 0-0.001 0-0.002 0-0.003v0c-0.007-6.476-5.255-11.723-11.731-11.73h-0.001z"></path>
</svg>
