<svg xmlns="http://www.w3.org/2000/svg" width="87.176" height="106.924" viewBox="0 0 87.176 106.924">
  <g id="wedding-rings" transform="translate(-0.5)">
    <path id="Path_1" data-name="Path 1" d="M30.374,115.063a29.874,29.874,0,1,0,29.874,29.874A29.875,29.875,0,0,0,30.374,115.063Zm0,52.342a22.468,22.468,0,1,1,22.468-22.468A22.468,22.468,0,0,1,30.374,167.405Zm0,0" transform="translate(0 -91.034)" fill="#c1c1c1"/>
    <path id="Path_2" data-name="Path 2" d="M241.807,273.091a30.434,30.434,0,0,0-5-.134,22.335,22.335,0,0,1-3.508,9.267,20.581,20.581,0,0,1,8.3.307,29.689,29.689,0,0,0,2.593-8.942C243.084,273.354,242.072,273.142,241.807,273.091Zm0,0" transform="translate(-184.183 -215.929)" fill="#888"/>
    <path id="Path_3" data-name="Path 3" d="M87.4,67.077l-.956,6.562,9.063,9.305a2.587,2.587,0,0,0,1.852.782h2.022a2.585,2.585,0,0,0,1.851-.782l9.063-9.305-.956-6.562a2.444,2.444,0,0,0-2.42-2.092h-17.1A2.444,2.444,0,0,0,87.4,67.077Zm0,0" transform="translate(-67.997 -51.413)" fill="#00d1b6"/>
    <g id="Group_1" data-name="Group 1" transform="translate(18.449 13.57)">
      <path id="Path_4" data-name="Path 4" d="M123.961,106.426l3.109,9.305c.167.5.4.782.635.782h.693c.239,0,.468-.282.635-.782l3.11-9.305Zm0,0" transform="translate(-116.127 -97.771)" fill="#00b88e"/>
      <path id="Path_5" data-name="Path 5" d="M166.592,73.638h-7.833l-.327-6.561c-.062-1.2-.414-2.092-.83-2.092h5.617a2.444,2.444,0,0,1,2.418,2.092Zm0,0" transform="translate(-142.742 -64.984)" fill="#00b88e"/>
      <path id="Path_6" data-name="Path 6" d="M95.441,64.98c-.418,0-.769.892-.83,2.093l-.327,6.56H86.449l.955-6.56a2.446,2.446,0,0,1,2.419-2.093Zm0,0" transform="translate(-86.449 -64.98)" fill="#00b88e"/>
    </g>
    <path id="Path_7" data-name="Path 7" d="M180.438,262.893A26.83,26.83,0,0,0,134.9,278.072c.591.047,1.189.072,1.79.072a22.628,22.628,0,0,0,4.554-.462,20.652,20.652,0,0,1,17.165-16.237,20.749,20.749,0,0,1,7.547.269,20.645,20.645,0,1,1-24.868,23.515,29.952,29.952,0,0,1-4.4.322q-.912,0-1.811-.055a26.83,26.83,0,1,0,45.555-22.6Zm0,0" transform="translate(-106.319 -201.774)" fill="#c1c1c1"/>
    <path id="Path_8" data-name="Path 8" d="M141.091,399.621a29.953,29.953,0,0,1-4.4.321c-.608,0-1.212-.017-1.811-.055a26.731,26.731,0,0,0,1.729,6.484,29.72,29.72,0,0,0,6.2-1.261A20.6,20.6,0,0,1,141.091,399.621Zm0,0" transform="translate(-106.319 -316.166)" fill="#888"/>
    <path id="Path_9" data-name="Path 9" d="M324.342,228.222l-5.108,3.81-.165,12.481a2.483,2.483,0,0,0,.727,1.789l1.374,1.374a2.483,2.483,0,0,0,1.789.727l12.482-.164,3.809-5.109a2.35,2.35,0,0,0-.222-3.066l-11.621-11.62a2.348,2.348,0,0,0-3.065-.222Zm0,0" transform="translate(-252.04 -180.193)" fill="#ff87b3"/>
    <path id="Path_10" data-name="Path 10" d="M377.3,280.407l-5.323-5.322,4.235-4.681c.774-.857,1.141-1.7.858-1.986l3.817,3.817a2.349,2.349,0,0,1,.221,3.065Zm0,0" transform="translate(-293.899 -212.362)" fill="#ffb6e0"/>
    <path id="Path_11" data-name="Path 11" d="M331.853,232.262c-.284-.284-1.129.083-1.986.857l-4.681,4.235-5.323-5.322,5.107-3.809a2.347,2.347,0,0,1,3.065.221Zm0,0" transform="translate(-252.668 -180.193)" fill="#ffb6e0"/>
    <path id="Path_12" data-name="Path 12" d="M334.206,279.279l-8.437,4.21c-.453.225-.8.261-.962.1l-.472-.473c-.162-.161-.125-.508.1-.962l4.21-8.436Zm0,0" transform="translate(-256.128 -216.556)" fill="#ffb6e0"/>
    <path id="Path_13" data-name="Path 13" d="M213.688,26.11a1.59,1.59,0,0,1-1.124-2.713l4.107-4.107a1.59,1.59,0,0,1,2.248,2.248l-4.107,4.107A1.585,1.585,0,0,1,213.688,26.11Zm0,0" transform="translate(-167.409 -14.893)" fill="#395d6e"/>
    <path id="Path_14" data-name="Path 14" d="M233.586,70.7h-4.908a1.59,1.59,0,0,1,0-3.179h4.908a1.59,1.59,0,0,1,0,3.179Zm0,0" transform="translate(-179.269 -53.422)" fill="#395d6e"/>
    <path id="Path_15" data-name="Path 15" d="M184.656,8.087a1.59,1.59,0,0,1-1.589-1.59V1.589a1.589,1.589,0,0,1,3.178,0V6.5A1.59,1.59,0,0,1,184.656,8.087Zm0,0" transform="translate(-144.44)" fill="#395d6e"/>
  </g>
</svg>
