<?xml version="1.0" encoding="iso-8859-1"?>
<!-- Generator: Adobe Illustrator 17.1.0, SVG Export Plug-In . SVG Version: 6.00 Build 0)  -->
<!DOCTYPE svg PUBLIC "-//W3C//DTD SVG 1.1//EN" "http://www.w3.org/Graphics/SVG/1.1/DTD/svg11.dtd">
<svg version="1.1" id="Capa_1" xmlns="http://www.w3.org/2000/svg" xmlns:xlink="http://www.w3.org/1999/xlink" x="0px" y="0px"
	 viewBox="0 0 461.555 461.555" style="enable-background:new 0 0 461.555 461.555;" xml:space="preserve">
<path id="XMLID_549_" d="M253.079,164.828c0-11.806-10.004-21.412-22.3-21.412c-12.298,0-22.303,9.605-22.303,21.412
	c0,11.807,10.005,21.412,22.303,21.412C243.075,186.24,253.079,176.634,253.079,164.828z M230.779,173.24
	c-5.13,0-9.303-3.774-9.303-8.412s4.173-8.412,9.303-8.412c5.128,0,9.3,3.773,9.3,8.412S235.907,173.24,230.779,173.24z
	 M395.604,164.828c0-11.688-12.568-21.322-31.66-25.875c16.206-11.45,24.047-25.01,19.659-35.87
	c-5.091-12.605-22.707-15.191-41.981-11.613c3.252-4.915,5.876-9.843,7.737-14.594c4.824-12.308,4.104-22.465-2.031-28.599
	c-8.265-8.262-23.965-6.187-40.682,4.091c3.362-19.555-0.683-34.687-11.467-39.265c-12.505-5.309-26.788,5.312-37.884,21.461
	C253.056,13.854,243.049,0,230.779,0c-11.688,0-21.322,12.569-25.876,31.658c-11.45-16.207-25.01-24.042-35.871-19.656
	c-12.599,5.09-15.187,22.7-11.613,41.965c-17.643-11.645-34.518-14.365-43.191-5.691c-6.135,6.133-6.855,16.29-2.031,28.599
	c1.545,3.942,3.615,8.007,6.133,12.084c-19.563-3.364-34.697,0.68-39.275,11.465c-5.309,12.506,5.313,26.788,21.461,37.884
	c-20.709,4.24-34.564,14.249-34.564,26.519c0,11.687,12.569,21.321,31.658,25.875c-16.206,11.45-24.044,25.008-19.656,35.872
	c5.094,12.602,22.711,15.188,41.983,11.608c-3.253,4.916-5.877,9.845-7.739,14.597c-4.824,12.309-4.104,22.465,2.03,28.6
	c0.001,0,0.001,0,0.001,0c8.263,8.263,23.964,6.188,40.681-4.091c-3.362,19.555,0.683,34.686,11.467,39.263
	c12.508,5.31,26.788-5.311,37.885-21.461c3.463,16.913,10.772,29.253,20.02,33.21v16.375c-1.406-0.28-2.864-0.497-4.372-0.648
	c-1.551-0.155-3.137-0.236-4.749-0.241c-4.77-9.643-14.107-15.551-26.309-16.44c-6.1-0.447-12.593,0.37-19.342,2.419
	c-5.141-3.353-11.138-5.799-17.879-7.287c-18.957-4.176-39.952,0.205-54.796,11.435c-1.554,1.176-2.498,2.986-2.573,4.933
	c-0.717,18.601,7.705,38.328,21.979,51.483c5.073,4.674,10.511,8.193,16.206,10.492c2.184,6.712,5.231,12.502,9.085,17.248
	c7.712,9.497,17.903,13.777,28.537,12.168c0.927,1.317,1.901,2.573,2.917,3.757c10.79,12.57,24.562,15.813,38.777,9.127
	c4.377-2.058,8.589-4.981,12.518-8.542v20.477c0,3.59,2.91,6.5,6.5,6.5s6.5-2.91,6.5-6.5v-36.103
	c9.542-14.97,14.863-33.423,12.306-48.346c-1.548-9.032-5.777-16.007-12.306-20.58V328.3c8.707-3.728,15.697-14.893,19.373-30.306
	c9.335,13.212,20.069,20.863,29.603,20.862c2.16,0,4.262-0.394,6.269-1.205c12.6-5.089,15.188-22.696,11.614-41.962
	c17.642,11.645,34.511,14.365,43.191,5.689c6.134-6.135,6.854-16.291,2.03-28.599c-1.545-3.943-3.614-8.008-6.132-12.086
	c19.56,3.364,34.696-0.68,39.274-11.464c5.309-12.507-5.313-26.789-21.461-37.884C381.75,187.105,395.604,177.098,395.604,164.828z
	 M368.211,104.986l-22.61,9.135c-2.049,0.828-3.038,3.159-2.211,5.207c0.63,1.557,2.128,2.502,3.71,2.502
	c0.499,0,1.007-0.094,1.497-0.292l22.579-9.123c-2.473,6.32-12.063,15.974-28.264,23.789c-1.527-0.056-3.073-0.084-4.64-0.084
	c-17.191,0-32.158,3.414-42.485,9.033c-3.448-0.87-5.754-2.282-6.444-3.989c-0.801-1.981,0.259-5.203,2.848-8.813
	c0.874-0.293,1.76-0.615,2.657-0.967c10.569-4.143,22.019-12.052,32.237-22.271c0.055-0.055,0.109-0.109,0.164-0.164
	C346.123,101.879,361.537,101.872,368.211,104.986z M299.891,73.718c13.679-12.303,26.944-17.827,33.987-17.646l-17.215,17.216
	c-1.563,1.562-1.563,4.095,0,5.657c0.781,0.781,1.805,1.171,2.828,1.171s2.048-0.391,2.828-1.172l17.188-17.19
	c0.071,2.75-0.685,6.381-2.252,10.377c-3.301,8.423-9.896,18.051-18.205,26.615c-0.066,0.066-0.131,0.132-0.194,0.201
	c-0.318,0.326-0.64,0.651-0.962,0.974c-8.852,8.851-18.98,15.908-27.79,19.361c-6.782,2.659-12.538,3.003-14.661,0.88
	c-4.421-4.422,1.396-23.609,20.239-42.452c1.321-1.32,2.643-2.576,3.961-3.77C299.728,73.869,299.811,73.794,299.891,73.718z
	 M259.483,57.33c0-0.078,0-0.153,0-0.23c8.347-18.343,19.241-29.25,26.161-31.767l-9.529,22.448
	c-0.863,2.034,0.085,4.382,2.119,5.245c0.51,0.216,1.039,0.319,1.561,0.319c1.557,0,3.037-0.915,3.684-2.438l9.516-22.417
	c2.722,6.217,2.768,19.824-3.16,36.804c-1.119,1.041-2.236,2.117-3.343,3.224c-12.156,12.156-20.325,25.152-23.654,36.428
	c-3.055,1.823-5.683,2.458-7.379,1.737c-1.982-0.841-3.52-3.908-4.233-8.344C256.381,88.086,259.483,73.718,259.483,57.33z
	 M215.208,51.82c0.006-0.081,0.01-0.162,0.013-0.243c0.966-18.398,6.445-31.699,11.559-36.554v24.348c0,2.209,1.791,4,4,4
	s4-1.791,4-4V15.031c5.478,5.204,11.376,20.102,11.691,40.581c-0.003,0.141-0.001,0.282,0.005,0.422
	c0.005,0.43,0.008,0.862,0.008,1.296c0,26.65-9.452,44.331-15.704,44.331c-6.254,0-15.708-17.681-15.708-44.331
	C215.071,55.448,215.118,53.609,215.208,51.82z M202.155,52.689c-0.056,1.527-0.084,3.075-0.084,4.641
	c0,17.192,3.415,32.161,9.034,42.488c-0.87,3.447-2.281,5.752-3.991,6.443c-1.994,0.806-5.251-0.275-8.895-2.908
	c-3.604-10.896-11.568-23.247-23.156-34.834c-0.053-0.054-0.108-0.109-0.162-0.162c-7.07-18.873-7.076-34.285-3.965-40.96
	l9.135,22.609c0.63,1.557,2.128,2.502,3.71,2.502c0.499,0,1.007-0.094,1.497-0.292c2.049-0.827,3.038-3.159,2.211-5.207
	l-9.122-22.579C184.688,26.901,194.342,36.488,202.155,52.689z M164.696,76.553c0.065,0.066,0.132,0.131,0.2,0.194
	c0.325,0.318,0.649,0.639,0.976,0.964c18.844,18.843,24.661,38.03,20.239,42.452c-2.123,2.123-7.877,1.778-14.661-0.88
	c-8.809-3.453-18.938-10.51-27.789-19.361c-8.852-8.852-15.908-18.98-19.361-27.79c-1.566-3.996-2.323-7.627-2.252-10.377
	l17.192,17.191c0.781,0.781,1.805,1.171,2.828,1.171s2.048-0.391,2.828-1.172c1.563-1.562,1.563-4.095,0-5.657l-17.214-17.213
	c0.112-0.003,0.219-0.01,0.333-0.01C135.673,56.064,150.192,62.47,164.696,76.553z M91.286,109.963l22.444,9.527
	c0.51,0.216,1.039,0.319,1.561,0.319c1.557,0,3.037-0.915,3.684-2.438c0.863-2.034-0.085-4.382-2.119-5.245l-22.415-9.514
	c6.217-2.722,19.827-2.768,36.812,3.163c1.044,1.125,2.117,2.24,3.218,3.34c10.219,10.22,21.668,18.129,32.236,22.272
	c1.445,0.566,2.858,1.056,4.241,1.469c1.784,3.018,2.397,5.614,1.686,7.292c-0.842,1.982-3.908,3.52-8.346,4.233
	c-10.253-5.157-24.619-8.259-41.007-8.259c-0.078,0-0.152,0-0.23,0C104.708,127.774,93.806,116.882,91.286,109.963z M80.974,168.828
	h24.349c2.209,0,4-1.791,4-4s-1.791-4-4-4H80.98c5.203-5.479,20.102-11.378,40.583-11.693c0.141,0.004,0.282,0.001,0.421-0.006
	c0.43-0.005,0.862-0.007,1.297-0.007c26.65,0,44.331,9.454,44.331,15.707s-17.681,15.706-44.331,15.706
	c-1.867,0-3.691-0.046-5.468-0.135c-0.107-0.008-0.217-0.014-0.325-0.017C99.11,179.41,85.825,173.937,80.974,168.828z
	 M93.345,224.667l22.609-9.134c2.049-0.828,3.038-3.159,2.211-5.208c-0.828-2.048-3.162-3.037-5.207-2.21l-22.58,9.122
	c2.473-6.32,12.063-15.974,28.26-23.788c1.527,0.056,3.075,0.084,4.642,0.084c17.191,0,32.16-3.415,42.487-9.033
	c3.449,0.87,5.754,2.281,6.443,3.99c0.801,1.98-0.259,5.203-2.849,8.813c-0.873,0.293-1.759,0.615-2.656,0.967
	c-10.568,4.142-22.018,12.052-32.236,22.271c-0.054,0.053-0.106,0.106-0.159,0.159C115.436,227.774,100.021,227.78,93.345,224.667z
	 M161.663,255.938c-13.678,12.303-26.941,17.828-33.984,17.646l17.217-17.217c1.563-1.563,1.563-4.095,0-5.657
	c-1.561-1.562-4.094-1.562-5.656,0l-17.191,17.191c-0.071-2.75,0.686-6.382,2.252-10.378c3.453-8.81,10.51-18.938,19.362-27.79
	c8.851-8.851,18.979-15.908,27.788-19.36c6.782-2.658,12.538-3.005,14.661-0.88c4.422,4.422-1.396,23.609-20.239,42.453
	c-1.32,1.32-2.642,2.576-3.96,3.769C161.827,255.787,161.744,255.862,161.663,255.938z M202.071,272.324c0,0.078,0,0.156,0,0.233
	c-8.347,18.339-19.242,29.243-26.159,31.763l9.527-22.446c0.863-2.034-0.085-4.382-2.119-5.245
	c-2.031-0.861-4.381,0.085-5.244,2.119l-9.515,22.417c-2.722-6.217-2.769-19.824,3.159-36.803c1.121-1.042,2.234-2.115,3.343-3.224
	c12.157-12.156,20.326-25.153,23.656-36.429c3.056-1.824,5.684-2.456,7.376-1.739c1.984,0.842,3.521,3.91,4.235,8.347
	C205.174,241.57,202.071,255.937,202.071,272.324z M229.699,405.768c-2.818-3.599-5.829-7.019-9.027-10.234
	c-0.003-0.082-0.008-0.165-0.016-0.248c-1.295-13.772-9.205-26.27-21.16-33.432c-1.895-1.136-4.352-0.52-5.487,1.375
	c-1.135,1.895-0.52,4.352,1.376,5.487c6.861,4.111,12.093,10.364,14.97,17.614c-13.443-10.628-29.156-18.242-45.944-22.216
	c-7.193-11.38-19.449-18.892-32.985-20.163c-2.202-0.216-4.15,1.409-4.356,3.609c-0.206,2.199,1.409,4.149,3.608,4.356
	c8.248,0.774,15.912,4.376,21.715,10.005c-4.333-0.56-8.716-0.88-13.13-0.951c-0.022,0-0.044,0-0.065,0
	c-2.18,0-3.963,1.749-3.998,3.936c-0.036,2.209,1.726,4.028,3.935,4.064c17.448,0.281,34.368,4.739,49.413,12.67
	c-9.105,4.507-19.895,4.928-29.457,1.031c-2.048-0.834-4.381,0.148-5.214,2.195c-0.834,2.045,0.148,4.38,2.194,5.213
	c12.905,5.26,27.648,4.081,39.439-3.157c0.334-0.205,0.627-0.45,0.877-0.727c11.137,7.103,20.976,16.247,28.929,27.059
	c-5.375,8.102-12.08,14.807-19.084,18.101c-8.811,4.144-16.459,2.236-23.38-5.828c-1.504-1.754-2.899-3.741-4.147-5.906
	c-1.186-2.057-3.357-3.255-5.633-3.255c-0.662,0-1.334,0.102-1.992,0.314c-7.223,2.327-13.951-0.026-19.456-6.807
	c-3.321-4.091-5.884-9.394-7.615-15.762c-0.581-2.136-2.209-3.829-4.32-4.494c-5.003-1.575-10.064-4.635-14.637-8.849
	c-10.574-9.745-17.355-24.476-17.808-38.289c11.587-7.533,27.547-10.401,41.587-7.308c6.078,1.342,11.484,3.742,15.636,6.941
	c1.754,1.352,4.075,1.719,6.159,0.971c6.206-2.223,12.022-3.154,17.282-2.773c8.71,0.635,14.489,4.806,16.714,12.062
	c0.898,2.932,3.726,4.836,6.779,4.57c2.492-0.217,4.918-0.211,7.211,0.019c3.428,0.344,6.369,1.121,8.835,2.34
	c0.219,0.131,0.446,0.25,0.681,0.355c4.732,2.595,7.584,6.949,8.646,13.145C238.419,382.415,235.362,394.736,229.699,405.768z
	 M246.347,277.826c-0.006,0.085-0.011,0.17-0.013,0.256c-0.967,18.394-6.443,31.693-11.555,36.549v-24.347c0-2.209-1.791-4-4-4
	s-4,1.791-4,4v24.342c-5.478-5.201-11.374-20.089-11.694-40.556c0.004-0.159,0.001-0.318-0.007-0.476
	c-0.005-0.422-0.007-0.844-0.007-1.271c0-26.649,9.454-44.329,15.708-44.329c6.252,0,15.704,17.68,15.704,44.329
	C246.483,274.204,246.437,276.038,246.347,277.826z M241.167,218.583c-3.192-2.329-6.688-3.589-10.388-3.589
	c-3.936,0-7.64,1.426-10.994,4.045c-2.113-3.769-5.021-6.513-8.611-8.037c-1.772-0.751-3.999-1.332-6.65-1.332
	c-1.36,0-2.832,0.153-4.411,0.514c-0.611-3.905-2.191-7.268-4.808-9.885c-2.773-2.773-6.369-4.44-10.613-4.988
	c1.148-4.132,1.024-8.1-0.426-11.688c-1.09-2.703-3.194-5.866-7.243-8.408c2.329-3.193,3.589-6.688,3.589-10.388
	c0-3.936-1.426-7.639-4.046-10.994c3.769-2.113,6.512-5.021,8.034-8.609c1.132-2.668,1.877-6.367,0.836-10.991
	c3.922-0.64,7.26-2.271,9.869-4.88c2.782-2.783,4.393-6.41,4.912-10.635c4.16,1.171,8.154,1.056,11.767-0.405
	c2.703-1.091,5.866-3.196,8.407-7.242c3.193,2.329,6.688,3.589,10.389,3.589c3.936,0,7.638-1.425,10.991-4.045
	c2.113,3.768,5.021,6.511,8.608,8.033c2.684,1.14,6.409,1.885,11.063,0.82c0.611,3.905,2.191,7.268,4.808,9.885v0
	c2.773,2.773,6.368,4.44,10.613,4.988c-1.147,4.133-1.023,8.103,0.428,11.694c1.093,2.701,3.198,5.862,7.242,8.401
	c-2.328,3.193-3.589,6.688-3.589,10.389c0,3.936,1.425,7.638,4.045,10.993c-3.769,2.114-6.512,5.022-8.034,8.61
	c-1.132,2.668-1.877,6.367-0.836,10.991c-3.921,0.64-7.26,2.27-9.869,4.879v0c-2.782,2.783-4.393,6.409-4.912,10.634
	c-4.158-1.17-8.154-1.053-11.768,0.406C246.869,212.432,243.708,214.537,241.167,218.583z M259.399,276.963
	c0.056-1.527,0.084-3.073,0.084-4.639c0-17.191-3.414-32.159-9.032-42.485c0.871-3.449,2.282-5.754,3.989-6.444
	c1.992-0.807,5.252,0.275,8.895,2.906c3.604,10.896,11.568,23.25,23.156,34.837c0.055,0.055,0.109,0.109,0.164,0.164
	c7.069,18.871,7.075,34.282,3.963,40.957l-9.135-22.608c-0.828-2.048-3.158-3.039-5.208-2.21c-2.048,0.828-3.037,3.159-2.21,5.207
	l9.121,22.573C276.869,302.743,267.213,293.16,259.399,276.963z M296.893,253.137c-0.087-0.09-0.177-0.177-0.269-0.262
	c-0.314-0.307-0.627-0.616-0.94-0.93c-18.844-18.844-24.662-38.031-20.24-42.453c2.122-2.124,7.879-1.779,14.661,0.88
	c8.81,3.453,18.938,10.509,27.79,19.361c8.852,8.851,15.909,18.979,19.361,27.79c1.566,3.995,2.323,7.626,2.252,10.376
	L322.32,250.71c-1.563-1.563-4.095-1.562-5.657,0c-1.563,1.562-1.563,4.095,0,5.657l17.21,17.212
	C326.316,273.774,311.601,267.406,296.893,253.137z M370.27,219.693l-22.446-9.528c-2.032-0.862-4.381,0.085-5.244,2.119
	s0.085,4.382,2.119,5.245l22.414,9.514c-6.219,2.721-19.829,2.765-36.808-3.162c-1.046-1.126-2.119-2.241-3.219-3.341
	c-10.22-10.22-21.669-18.129-32.238-22.271c-1.443-0.566-2.858-1.056-4.24-1.469c-1.784-3.019-2.398-5.614-1.687-7.292
	c0.842-1.983,3.908-3.521,8.343-4.235c10.253,5.157,24.621,8.26,41.009,8.26c0.078,0,0.153,0,0.231,0
	C356.848,201.88,367.751,212.773,370.27,219.693z M339.991,180.521c-0.144-0.004-0.281-0.001-0.419,0.006
	c-0.431,0.005-0.863,0.007-1.299,0.007c-26.648,0-44.329-9.453-44.329-15.706s17.681-15.707,44.329-15.707
	c1.892,0,3.737,0.047,5.535,0.138c0.063,0.004,0.128,0.008,0.191,0.01c18.412,0.962,31.723,6.443,36.581,11.559h-24.346
	c-2.209,0-4,1.791-4,4s1.791,4,4,4h24.34C375.371,174.307,360.472,180.206,339.991,180.521z M264.889,151.242
	c-0.827-2.048,0.162-4.379,2.211-5.207l1.129-0.456c2.046-0.827,4.38,0.162,5.207,2.21c0.827,2.049-0.162,4.38-2.211,5.208
	l-1.129,0.456c-0.49,0.198-0.998,0.292-1.497,0.292C267.017,153.745,265.518,152.8,264.889,151.242z M273.132,182.597
	c-0.646,1.523-2.127,2.437-3.684,2.437c-0.521,0-1.052-0.103-1.562-0.319l-1.123-0.477c-2.033-0.864-2.981-3.212-2.118-5.246
	c0.863-2.034,3.213-2.982,5.245-2.118l1.123,0.477C273.047,178.215,273.995,180.564,273.132,182.597z M219.223,203.446l-0.477,1.122
	c-0.646,1.523-2.127,2.438-3.684,2.438c-0.521,0-1.052-0.103-1.562-0.319c-2.033-0.864-2.981-3.212-2.118-5.245l0.477-1.122
	c0.863-2.034,3.213-2.982,5.245-2.118C219.138,199.064,220.086,201.413,219.223,203.446z M211.02,190.733l-0.698,0.699
	c-0.781,0.783-1.806,1.175-2.831,1.175c-1.022,0-2.045-0.39-2.825-1.168c-1.564-1.561-1.566-4.093-0.006-5.657l0.698-0.699
	c1.561-1.564,4.094-1.566,5.656-0.006C212.578,186.637,212.58,189.169,211.02,190.733z M202.629,164.827c0,2.209-1.791,4-4,4h-0.987
	c-2.209,0-4-1.791-4-4s1.791-4,4-4h0.987C200.838,160.827,202.629,162.618,202.629,164.827z M197.655,178.409
	c0.827,2.048-0.163,4.379-2.212,5.207l-1.13,0.456c-0.49,0.198-0.997,0.292-1.496,0.292c-1.583,0-3.081-0.946-3.71-2.504
	c-0.827-2.048,0.163-4.379,2.212-5.207l1.13-0.456C194.494,175.373,196.828,176.36,197.655,178.409z M257.884,191.432
	c-0.781,0.784-1.807,1.176-2.832,1.176c-1.021,0-2.044-0.389-2.824-1.167l-0.699-0.697c-1.564-1.56-1.568-4.093-0.008-5.657
	c1.56-1.565,4.093-1.568,5.656-0.008l0.699,0.697C259.44,187.335,259.444,189.868,257.884,191.432z M235.271,197.471v0.988
	c0,2.209-1.791,4-4,4s-4-1.791-4-4v-0.988c0-2.209,1.791-4,4-4S235.271,195.262,235.271,197.471z M250.517,201.784
	c0.827,2.048-0.163,4.379-2.211,5.207c-0.491,0.198-0.998,0.292-1.497,0.292c-1.582,0-3.081-0.945-3.71-2.503l-0.456-1.129
	c-0.827-2.048,0.163-4.379,2.211-5.207c2.048-0.826,4.38,0.163,5.207,2.211L250.517,201.784z M212.026,127.87
	c-0.827-2.048,0.162-4.379,2.211-5.207c2.045-0.827,4.381,0.162,5.207,2.211l0.456,1.129c0.827,2.048-0.162,4.379-2.211,5.207
	c-0.49,0.198-0.998,0.292-1.497,0.292c-1.582,0-3.081-0.945-3.71-2.502L212.026,127.87z M227.271,132.184v-0.988
	c0-2.209,1.791-4,4-4s4,1.791,4,4v0.988c0,2.209-1.791,4-4,4S227.271,134.393,227.271,132.184z M243.317,126.209l0.475-1.121
	c0.862-2.034,3.21-2.985,5.243-2.123c2.034,0.861,2.985,3.209,2.124,5.243l-0.475,1.121c-0.646,1.525-2.127,2.441-3.686,2.441
	c-0.521,0-1.049-0.102-1.558-0.318C243.407,130.591,242.456,128.243,243.317,126.209z M251.527,138.912l0.699-0.698
	c1.563-1.56,4.097-1.557,5.656,0.006c1.561,1.564,1.559,4.097-0.006,5.657l-0.699,0.698c-0.78,0.779-1.803,1.168-2.825,1.168
	c-1.025,0-2.05-0.392-2.831-1.174C249.961,143.005,249.963,140.473,251.527,138.912z M189.409,147.062
	c0.86-2.033,3.208-2.986,5.243-2.124l1.121,0.475c2.034,0.861,2.985,3.208,2.124,5.243c-0.646,1.525-2.127,2.441-3.686,2.441
	c-0.52,0-1.049-0.102-1.558-0.317l-1.121-0.475C189.499,151.444,188.548,149.097,189.409,147.062z M259.916,164.827
	c0-2.209,1.791-4,4-4h0.987c2.209,0,4,1.791,4,4s-1.791,4-4,4h-0.987C261.707,168.827,259.916,167.036,259.916,164.827z
	 M204.663,143.875c-1.563-1.562-1.563-4.094-0.002-5.657c1.561-1.562,4.096-1.563,5.656-0.002l0.698,0.698
	c1.563,1.562,1.563,4.094,0.002,5.657c-0.78,0.781-1.805,1.172-2.829,1.172c-1.023,0-2.046-0.39-2.827-1.17L204.663,143.875z"/>
<g>
</g>
<g>
</g>
<g>
</g>
<g>
</g>
<g>
</g>
<g>
</g>
<g>
</g>
<g>
</g>
<g>
</g>
<g>
</g>
<g>
</g>
<g>
</g>
<g>
</g>
<g>
</g>
<g>
</g>
</svg>
