<svg id="Layer_1" enable-background="new 0 0 511.259 511.259" height="512" viewBox="0 0 511.259 511.259" width="512" xmlns="http://www.w3.org/2000/svg"><path d="m270.148 104.665c8.142-3.435 11.958-12.819 8.523-20.961s-12.818-11.956-20.961-8.523c-13.35 5.631-24.499 19.806-35.551 36.43-.368-14.503-2.867-28.187-7.476-41.629-2.866-8.359-11.963-12.811-20.325-9.946-8.359 2.866-12.812 11.966-9.946 20.325 6.564 19.145 7.509 39.48 2.709 63.819-45.742-57.812-98.515-105.911-163.624-140.426-7.808-4.139-17.492-1.165-21.63 6.643-4.139 7.807-1.165 17.491 6.643 21.63 14.087 7.468 27.732 15.716 41.002 24.781 2.78 2.733 13.953 8.963 15.82 36.497 1.12 16.508-2.281 29.739-4.263 32.846-4.752 7.45-2.566 17.342 4.883 22.094 7.479 4.771 17.361 2.537 22.094-4.883 6.508-10.201 10.169-29.468 9.396-48.774 59.219 53.347 105.391 121.163 144.148 191.192 2.92 5.277 8.381 8.255 14.014 8.255 12.017 0 19.933-13.001 13.985-23.75-18.459-33.353-37.005-63.337-55.945-90.413 19.32-20.938 43.228-69.607 56.504-75.207z" fill="#90c453"/><path d="m436.234 412.613c-10.294-35.406-25.59-67.092-45.462-94.176-3.854-5.25-10.503-7.646-16.816-6.048l-84.07 21.223c-6.308 1.592-11.023 6.845-11.929 13.287l-2.288 16.281c-8.389 59.691 20.242 117.535 69.63 140.666 55.538 25.953 108.282-31.571 90.935-91.233z" fill="#ae5ecc"/><path d="m310.91 363.179-2.288-16.281c-.905-6.442-5.621-11.694-11.929-13.287l-84.071-21.223c-6.312-1.595-12.964.798-16.816 6.048-19.872 27.083-35.167 58.769-45.462 94.176-17.583 60.475 36.517 116.258 89.278 92 53.282-24.475 79.345-84.091 71.288-141.433z" fill="#ae67ce"/><path d="m382.368 265.331c-1.833-30.291-8.877-59.935-20.934-88.111-22.395-52.324-96.068-54.403-121.537-3.422-14.703 29.429-23.508 60.09-26.169 91.133-.508 5.925 2.312 11.643 7.322 14.847l72.523 46.371c5.532 3.538 12.663 3.335 17.987-.509l64.205-46.371c4.442-3.209 6.934-8.468 6.603-13.938z" fill="#ae67ce"/><path d="m236.682 223.284c-16.695-19.703-43.067-27.209-67.188-19.127-48.833 16.367-77.605 61.3-79.363 111.782-2.575 73.91 52.765 123.851 95.344 123.851 20.476 0 40.439-10.272 52.389-28.456 8.976-13.658 19.834-17.958 32.406-22.937 20.719-8.205 46.503-18.417 46.503-71.224-.001-80.811-56.776-66.375-80.091-93.889z" fill="#ae5ecc"/><path d="m439.071 205.639c-27.333-11.331-59.159-1.313-75.678 23.822-8.976 13.658-19.833 17.958-32.405 22.937-20.719 8.205-46.503 18.417-46.503 71.224 0 80.812 56.774 66.374 80.09 93.889 12.238 14.443 29.675 22.332 47.614 22.332 23.554 0 57.407-16.78 78.114-48.084 40.546-61.292 21.614-155.917-51.232-186.12z" fill="#b375d3"/><path d="m300.485 273.146c-26.055 0-47.251 21.197-47.251 47.251s21.196 47.251 47.251 47.251 47.252-21.197 47.252-47.251-21.198-47.251-47.252-47.251z" fill="#b375d3"/><path d="m286.005 37.819c-17.464 7.285-46.663 34.72-36.843 58.263 6.195 14.851 23.994 19.495 40.009 19.495 21.332 0 40.508-6.27 48.688-26.16 13.294-32.321-19.196-65.22-51.854-51.598z" fill="#b882d8"/><path d="m221.937 52.276c-1.697-23.12-10.962-44.531-33.534-50.193-34.128-8.559-61.595 28.688-43.596 58.742 0 .92 8.986 13.773 23.989 23.279 30.668 19.431 55.77 3.988 53.141-31.828z" fill="#b375d3"/><path d="m81.905 120.543c-22.686-11.723-52.453 15.26-61.082 31.957-13.636 26.384 5.71 57.762 35.104 57.762 14.343 0 28.208-7.811 35.235-21.408 8.69-16.812 13.405-56.598-9.257-68.311z" fill="#b882d8"/><path d="m239.897 173.799c-5.347 10.701-9.903 21.567-13.678 32.554 10.84 2.24 23.758 2.411 39.173-.439 78.387-14.492 54.074-33.495 94.81-31.392-23.873-49.774-95.326-50.723-120.305-.723z" fill="#b375d3"/><path d="m345.298 503.845c26.417 12.345 52.101 6.334 70.904-11.706-15.02-10.119-34.48-20.702-59.307-30.064-31.749-11.972-47.099-5.089-54.106 7.447 11.351 14.587 25.727 26.463 42.509 34.323z" fill="#ae67ce"/><path d="m155.456 471.891c15.684 31.122 50.282 48.602 85.828 31.952 34.548-16.181 58.918-49.362 67.582-88.272-22.061-17.455-38.131 6.05-79.183 40.29-22.239 18.548-50.399 19.909-74.227 16.03z" fill="#b375d3"/><path d="m439.071 205.639c-27.333-11.331-59.159-1.313-75.678 23.822-1.576 2.398-3.213 4.493-4.904 6.368 3.949 10.481 12.595 21.68 28.385 33.132 69.968 50.746 44.595 87.652 23.066 109.949-7.573 7.844-29.58 20.064-50.984 33.08 1.967 1.618 3.844 3.428 5.618 5.521 16.585 19.573 42.917 27.262 67.189 19.127 103.071-34.543 106.255-189.975 7.308-230.999z" fill="#b882d8"/><path d="m210.802 328.669c12.446-42.06-19.647-98.672-37.475-125.652-44.751 11.861-81.197 55.467-83.198 112.922-2.575 73.91 52.765 123.851 95.344 123.851 20.476 0 40.439-10.272 52.389-28.456 8.766-13.339 18.93-17.596 33.121-23.22 21.063-37.348-74.531-10.954-60.181-59.445z" fill="#b375d3"/><g fill="#b882d8"><path d="m169.984 437.771c-5.121-17.925-18.911-38.35-30.793-45.79-27.016-16.915-9.89-45.364 7.814-76.119 11.353-19.721-8.302-57.572-23.867-82.193-55.625 58.961-40.392 168.55 39.047 201.486 2.566 1.064 5.172 1.924 7.799 2.616z"/><path d="m300.485 273.146c-15.297 0-28.911 7.312-37.553 18.618 5.053 5.994 10.784 11.337 17.069 14.872 24.604 13.84-21.03 28.448 36.771 37.675 9.609 1.534 18.296.221 26.085-3.03 15.367-31.052-7.196-68.135-42.372-68.135z"/></g></svg>