<svg height="512pt" viewBox="0 0 512 512" width="512pt" xmlns="http://www.w3.org/2000/svg"><path d="m319.207031 281.054688c18.789063 4.542968 38.050781 6.835937 57.378907 6.835937h48.183593c28.949219 0 56.714844-11.46875 77.230469-31.890625-20.515625-20.421875-48.28125-31.890625-77.230469-31.890625h-48.183593c-19.328126 0-38.589844 2.296875-57.378907 6.835937l-.796875-1.925781c16.496094-10.074219 31.738282-22.070312 45.40625-35.738281l34.070313-34.070312c20.46875-20.472657 31.996093-48.214844 32.0625-77.160157-28.945313.0625-56.691407 11.59375-77.160157 32.0625l-34.070312 34.070313c-13.667969 13.667968-25.664062 28.910156-35.738281 45.40625l-1.925781-.796875c4.539062-18.789063 6.835937-38.050781 6.835937-57.378907v-48.183593c0-28.949219-11.46875-56.714844-31.890625-77.230469-20.421875 20.515625-31.890625 48.28125-31.890625 77.230469v48.183593c0 19.328126 2.296875 38.589844 6.835937 57.378907l-1.925781.796875c-10.074219-16.496094-22.070312-31.738282-35.738281-45.40625l-34.070312-34.070313c-20.472657-20.46875-48.214844-31.996093-77.160157-32.0625.0625 28.945313 11.59375 56.691407 32.0625 77.160157l34.070313 34.070312c13.667968 13.667969 28.910156 25.664062 45.40625 35.738281l-.796875 1.925781c-18.789063-4.542968-38.050781-6.835937-57.378907-6.835937h-48.183593c-28.949219 0-56.714844 11.46875-77.230469 31.890625 20.515625 20.421875 48.28125 31.890625 77.230469 31.890625h48.183593c19.328126 0 38.589844-2.296875 57.378907-6.835937l.796875 1.925781c-16.496094 10.074219-31.738282 22.070312-45.40625 35.738281l-34.070313 34.070312c-20.46875 20.472657-31.996093 48.214844-32.0625 77.160157 28.945313-.0625 56.691407-11.59375 77.160157-32.0625l34.070312-34.070313c13.667969-13.667968 25.664062-28.910156 35.738281-45.40625l1.925781.796875c-4.542968 18.789063-6.835937 38.050781-6.835937 57.378907v48.183593c0 28.949219 11.46875 56.714844 31.890625 77.230469 20.421875-20.515625 31.890625-48.28125 31.890625-77.230469v-48.183593c0-19.328126-2.296875-38.589844-6.835937-57.378907l1.925781-.796875c10.074219 16.496094 22.070312 31.738282 35.738281 45.40625l34.070312 34.070313c20.472657 20.46875 48.214844 31.996093 77.160157 32.0625-.0625-28.945313-11.59375-56.691407-32.0625-77.160157l-34.070313-34.070312c-13.667968-13.667969-28.910156-25.664062-45.40625-35.738281zm0 0" fill="#ffc15a"/><path d="m304.808594 303.335938c15.621094 11.386718 32.539062 20.875 50.394531 28.273437l44.519531 18.4375c26.742188 11.078125 56.785156 11.109375 83.550782.09375-11.136719-26.71875-32.402344-47.9375-59.144532-59.015625l-44.519531-18.441406c-17.855469-7.394532-36.527344-12.648438-55.625-15.644532v-2.078124c19.097656-2.996094 37.769531-8.25 55.625-15.648438l44.519531-18.4375c26.742188-11.078125 48.007813-32.296875 59.144532-59.015625-26.765626-11.019531-56.808594-10.984375-83.550782.09375l-44.519531 18.4375c-17.855469 7.398437-34.773437 16.886719-50.394531 28.269531l-1.46875-1.46875c11.382812-15.621094 20.871094-32.539062 28.269531-50.394531l18.4375-44.519531c11.078125-26.742188 11.113281-56.785156.09375-83.550782-26.71875 11.136719-47.9375 32.402344-59.015625 59.144532l-18.4375 44.519531c-7.398438 17.855469-12.652344 36.527344-15.648438 55.625h-2.078124c-2.996094-19.097656-8.25-37.769531-15.644532-55.625l-18.441406-44.519531c-11.078125-26.742188-32.296875-48.007813-59.015625-59.144532-11.015625 26.765626-10.984375 56.808594.09375 83.550782l18.4375 44.519531c7.398437 17.855469 16.886719 34.773437 28.273437 50.394531l-1.472656 1.46875c-15.621094-11.382812-32.539062-20.871094-50.394531-28.269531l-44.515625-18.4375c-26.746094-11.078125-56.789062-11.113281-83.554688-.09375 11.136719 26.71875 32.402344 47.9375 59.148438 59.015625l44.515625 18.4375c17.855469 7.398438 36.53125 12.652344 55.625 15.648438v2.078124c-19.09375 2.996094-37.769531 8.25-55.625 15.644532l-44.515625 18.441406c-26.746094 11.078125-48.011719 32.296875-59.148438 59.015625 26.765626 11.015625 56.808594 10.984375 83.554688-.09375l44.515625-18.4375c17.855469-7.398437 34.773437-16.886719 50.394531-28.273437l1.472656 1.472656c-11.386718 15.621094-20.875 32.539062-28.273437 50.394531l-18.4375 44.515625c-11.078125 26.746094-11.109375 56.789062-.09375 83.554688 26.71875-11.136719 47.9375-32.402344 59.015625-59.148438l18.441406-44.515625c7.394532-17.855469 12.648438-36.53125 15.644532-55.625h2.078124c2.996094 19.09375 8.25 37.769531 15.648438 55.625l18.4375 44.515625c11.078125 26.746094 32.296875 48.011719 59.015625 59.148438 11.019531-26.765626 10.984375-56.808594-.09375-83.554688l-18.4375-44.515625c-7.398437-17.855469-16.886719-34.773437-28.269531-50.394531zm0 0" fill="#ffcb7c"/><path d="m242.15625 196.988281c6.089844-10.765625 21.597656-10.765625 27.6875 0 3.597656 6.351563 11.058594 9.445313 18.09375 7.492188 11.917969-3.300781 22.882812 7.664062 19.582031 19.582031-1.949219 7.035156 1.140625 14.496094 7.496094 18.09375 10.761719 6.089844 10.761719 21.597656 0 27.691406-6.355469 3.59375-9.445313 11.054688-7.496094 18.09375 3.300781 11.917969-7.660156 22.882813-19.582031 19.578125-7.035156-1.949219-14.496094 1.140625-18.09375 7.496094-6.089844 10.761719-21.597656 10.761719-27.6875 0-3.597656-6.355469-11.058594-9.445313-18.09375-7.496094-11.921875 3.304688-22.882812-7.660156-19.582031-19.578125 1.949219-7.039062-1.140625-14.5-7.496094-18.09375-10.761719-6.09375-10.761719-21.601562 0-27.691406 6.355469-3.597656 9.445313-11.058594 7.496094-18.09375-3.300781-11.917969 7.660156-22.882812 19.582031-19.582031 7.035156 1.953125 14.496094-1.136719 18.09375-7.492188zm0 0" fill="#ffe6c0"/><path d="m276 256c0 11.046875-8.953125 20-20 20s-20-8.953125-20-20 8.953125-20 20-20 20 8.953125 20 20zm0 0" fill="#c68a65"/><path d="m512 256c0-2.660156-1.058594-5.210938-2.945312-7.085938-16.082032-16.011718-35.925782-26.886718-57.53125-31.804687 18.078124-12.8125 32.25-30.457031 40.980468-51.402344 1.023438-2.453125 1.027344-5.21875.007813-7.675781-1.015625-2.457031-2.972657-4.40625-5.429688-5.417969-20.988281-8.636719-43.484375-11.089843-65.324219-7.371093 11.796876-18.753907 18.140626-40.476563 18.191407-63.167969.003906-2.660157-1.050781-5.214844-2.929688-7.09375-1.875-1.875-4.417969-2.929688-7.070312-2.929688-.007813 0-.015625 0-.023438 0-22.707031.050781-44.4375 6.402344-63.199219 18.210938 1.191407-7.085938 1.746094-14.289063 1.640626-21.570313-.078126-5.472656-4.539063-9.855468-9.996094-9.855468-.046875 0-.097656 0-.144532 0-5.523437.078124-9.9375 4.617187-9.855468 10.140624.191406 13.613282-2.351563 26.894532-7.5625 39.476563l-3.242188 7.824219c-.011718.027344-.023437.058594-.035156.085937l-15.160156 36.605469c-6.101563 14.726562-13.722656 28.824219-22.679688 42.011719-4.585937-1.390625-9.546875-1.488281-14.421875-.136719-2.617187.726562-5.382812-.417969-6.71875-2.78125-2.492187-4.402344-6.070312-7.84375-10.296875-10.105469 2.988282-15.65625 7.570313-31.011719 13.671875-45.742187l15.164063-36.609375c.011718-.023438.019531-.046875.027344-.070313l3.246093-7.835937c5.261719-12.703125 12.953125-23.988281 22.855469-33.539063 3.976562-3.832031 4.089844-10.164062.257812-14.136718-3.835937-3.976563-10.167968-4.09375-14.140624-.257813-5.363282 5.167969-10.175782 10.765625-14.433594 16.746094-4.917969-21.617188-15.792969-41.476563-31.8125-57.566407-1.878906-1.886718-4.429688-2.945312-7.089844-2.945312s-5.210938 1.058594-7.085938 2.945312c-16.011718 16.082032-26.886718 35.925782-31.804687 57.53125-12.8125-18.078124-30.457031-32.25-51.402344-40.980468-2.457031-1.023438-5.21875-1.027344-7.675781-.007813-2.457031 1.015625-4.40625 2.972657-5.417969 5.433594-8.640625 20.984375-11.089843 43.480469-7.371093 65.320313-18.753907-11.796876-40.476563-18.140626-63.167969-18.1875-.007813 0-.015625 0-.023438 0-2.648437 0-5.195312 1.050781-7.070312 2.925781-1.878907 1.882812-2.933594 4.433593-2.929688 7.09375.050781 22.695312 6.394531 44.417969 18.191407 63.171875-21.84375-3.722656-44.335938-1.269532-65.324219 7.367187-2.457031 1.015625-4.414063 2.964844-5.429688 5.421875-1.019531 2.457032-1.015625 5.21875.007813 7.675782 8.730468 20.945312 22.902344 38.585937 40.980468 51.398437-21.605468 4.921875-41.449218 15.792969-57.53125 31.804687-1.886718 1.875-2.945312 4.425782-2.945312 7.085938s1.058594 5.210938 2.945312 7.085938c16.082032 16.011718 35.925782 26.886718 57.527344 31.804687-18.074218 12.8125-32.246094 30.457031-40.976562 51.402344-1.023438 2.457031-1.027344 5.21875-.007813 7.675781 1.015625 2.457031 2.972657 4.40625 5.433594 5.417969 14.664063 6.039062 30.066406 9.054687 45.46875 9.054687 6.636719 0 13.273437-.5625 19.851563-1.683594-11.796876 18.753907-18.140626 40.476563-18.191407 63.167969-.003906 2.660157 1.050781 5.214844 2.929688 7.09375 1.875 1.875 4.417969 2.929688 7.070312 2.929688h.023438c22.691406-.050781 44.414062-6.394531 63.167969-18.191407-3.71875 21.84375-1.265626 44.339844 7.371093 65.324219 1.011719 2.457031 2.960938 4.414063 5.417969 5.433594 1.226562.507813 2.527344.761719 3.828125.761719 1.308594 0 2.617187-.257813 3.847656-.769532 20.945313-8.734374 38.589844-22.90625 51.402344-40.980468 4.917969 21.601562 15.792969 41.445312 31.804687 57.53125 1.875 1.882812 4.425782 2.941406 7.085938 2.941406s5.210938-1.058594 7.085938-2.945312c16.011718-16.082032 26.886718-35.925782 31.804687-57.527344 12.8125 18.074218 30.457031 32.246094 51.402344 40.980468 1.230469.511719 2.539062.769532 3.847656.769532 1.300781 0 2.601563-.253906 3.828125-.761719 2.457031-1.019531 4.40625-2.976563 5.417969-5.433594 8.636719-20.984375 11.089843-43.480469 7.371093-65.324219 18.753907 11.796876 40.476563 18.140626 63.167969 18.191407h.023438c2.648437 0 5.195312-1.054688 7.070312-2.929688 1.878907-1.878906 2.933594-4.433593 2.929688-7.09375-.050781-22.691406-6.394531-44.414062-18.191407-63.167969 6.578126 1.121094 13.210938 1.683594 19.847657 1.683594 15.402343 0 30.808593-3.019531 45.476562-9.054687 2.457031-1.011719 4.414063-2.960938 5.433594-5.417969 1.015625-2.460938 1.011719-5.222656-.011719-7.675781-8.730468-20.945313-22.902344-38.589844-40.976562-51.402344 21.601562-4.917969 41.445312-15.792969 57.527344-31.804687 1.886718-1.875 2.945312-4.425782 2.945312-7.085938zm-42.546875-88.414062c-10.835937 19.839843-27.980469 35.28125-49.152344 44.050781l-7.828125 3.242187c-.027344.011719-.054687.023438-.082031.035156l-36.605469 15.160157c-14.730468 6.101562-30.082031 10.683593-45.742187 13.671875-2.261719-4.226563-5.703125-7.800782-10.105469-10.292969-2.363281-1.339844-3.507812-4.105469-2.78125-6.722656 1.351562-4.871094 1.253906-9.835938-.136719-14.421875 13.1875-8.957032 27.28125-16.578125 42.011719-22.679688l36.609375-15.164062c.023437-.007813.050781-.019532.074219-.027344l7.832031-3.246094c21.175781-8.769531 44.214844-9.972656 65.90625-3.605468zm-78.636719-15.445313-4.574218 4.570313-34.867188 14.441406c-6.699219 2.777344-13.277344 5.851562-19.71875 9.191406 3.339844-6.441406 6.414062-13.019531 9.191406-19.722656l14.441406-34.867188 4.570313-4.570312c16.207031-16.207032 37.035156-26.132813 59.507813-28.550782-2.417969 22.472657-12.34375 43.300782-28.550782 59.507813zm-100.207031 61.976563c2.996094-.828126 5.023437.785156 5.753906 1.519531.734375.730469 2.347657 2.757812 1.519531 5.753906-3.183593 11.480469 1.835938 23.597656 12.203126 29.46875 2.707031 1.53125 3 4.105469 3 5.140625s-.292969 3.609375-3 5.140625c-10.367188 5.871094-15.386719 17.988281-12.203126 29.46875.828126 2.996094-.785156 5.023437-1.519531 5.757813-.730469.730468-2.757812 2.34375-5.753906 1.515624-11.476563-3.179687-23.597656 1.835938-29.46875 12.207032-1.53125 2.703125-4.105469 2.996094-5.140625 2.996094-1.039062 0-3.609375-.292969-5.144531-2.996094-4.6875-8.285156-13.367188-13.15625-22.519531-13.15625-2.304688 0-4.640626.308594-6.945313.949218-3 .828126-5.023437-.785156-5.757813-1.515624-.730468-.734376-2.347656-2.761719-1.515624-5.757813 3.183593-11.480469-1.839844-23.597656-12.207032-29.46875-2.703125-1.53125-2.996094-4.105469-2.996094-5.140625s.292969-3.609375 2.996094-5.140625c10.367188-5.871094 15.390625-17.988281 12.207032-29.46875-.832032-2.996094.785156-5.023437 1.515624-5.753906.734376-.734375 2.757813-2.347657 5.757813-1.519531 11.484375 3.183593 23.597656-1.835938 29.46875-12.203126 1.53125-2.707031 4.105469-3 5.140625-3s3.609375.292969 5.140625 3c5.871094 10.367188 17.988281 15.386719 29.46875 12.203126zm-34.609375-189.15625c14.183594 17.601562 21.890625 39.351562 21.890625 62.269531v6.464843l-14.441406 34.867188c-2.777344 6.703125-5.253907 13.527344-7.449219 20.441406-2.191406-6.914062-4.667969-13.738281-7.445312-20.441406l-14.441407-34.871094v-6.464844c-.003906-22.914062 7.703125-44.664062 21.886719-62.265624zm-88.414062 17.585937c19.839843 10.835937 35.28125 27.980469 44.050781 49.152344l3.246093 7.832031c.007813.027344.019532.050781.027344.074219l15.164063 36.609375c6.101562 14.726562 10.683593 30.082031 13.671875 45.742187-4.226563 2.257813-7.804688 5.699219-10.292969 10.101563-1.339844 2.367187-4.101563 3.511718-6.722656 2.785156-4.871094-1.351562-9.832031-1.253906-14.421875.136719-8.957032-13.1875-16.578125-27.285157-22.675782-42.011719l-15.160156-36.597656c-.015625-.035156-.03125-.070313-.042968-.105469l-3.238282-7.816406c-8.769531-21.171875-9.972656-44.210938-3.605468-65.902344zm-15.445313 78.636719 4.570313 4.570312 14.441406 34.867188c2.777344 6.703125 5.851562 13.28125 9.191406 19.722656-6.441406-3.339844-13.019531-6.414062-19.722656-9.191406l-34.867188-14.441406-4.570312-4.570313c-16.207032-16.207031-26.136719-37.035156-28.554688-59.511719 22.476563 2.421875 43.304688 12.347656 59.511719 28.554688zm-109.59375 46.402344c21.691406-6.367188 44.730469-5.164063 65.90625 3.605468l7.832031 3.242188c.023438.011718.050782.023437.078125.035156l36.605469 15.164062c14.730469 6.097657 28.828125 13.71875 42.011719 22.675782-1.390625 4.589844-1.484375 9.550781-.132813 14.421875.722656 2.621093-.421875 5.382812-2.785156 6.722656-4.402344 2.492187-7.84375 6.066406-10.105469 10.292969-15.65625-2.988282-31.011719-7.566406-45.742187-13.667969l-36.605469-15.164063c-.027344-.011718-.054687-.023437-.078125-.03125l-7.832031-3.246093c-21.171875-8.769531-38.316407-24.210938-49.152344-44.050781zm44.683594 66.523437h6.464843l34.867188 14.445313c6.703125 2.773437 13.527344 5.253906 20.441406 7.445312-6.914062 2.191406-13.738281 4.667969-20.441406 7.445312l-34.871094 14.441407h-6.460937c-22.917969 0-44.667969-7.703125-62.269531-21.890625 17.601562-14.179688 39.351562-21.886719 62.269531-21.886719zm-44.683594 110.304687c10.835937-19.839843 27.980469-35.28125 49.152344-44.050781l7.839843-3.246093c.019532-.011719.042969-.019532.0625-.027344l36.613282-15.164063c14.730468-6.101562 30.085937-10.683593 45.742187-13.671875 2.261719 4.226563 5.703125 7.800782 10.105469 10.292969 2.363281 1.339844 3.507812 4.101563 2.78125 6.722656-1.351562 4.871094-1.253906 9.832031.136719 14.421875-13.1875 8.957032-27.285157 16.578125-42.011719 22.675782l-36.601562 15.164062c-.03125.011719-.0625.023438-.09375.035156l-7.820313 3.242188c-21.175781 8.769531-44.214844 9.972656-65.90625 3.605468zm78.636719 15.445313 4.574218-4.570313 34.867188-14.441406c6.699219-2.777344 13.277344-5.851562 19.71875-9.191406-3.339844 6.441406-6.414062 13.019531-9.191406 19.722656l-14.441406 34.863282-4.570313 4.574218c-16.207031 16.207032-37.03125 26.136719-59.507813 28.554688 2.417969-22.476563 12.34375-43.304688 28.550782-59.511719zm46.402344 109.59375c-6.367188-21.691406-5.164063-44.734375 3.605468-65.90625l3.242188-7.820313c.011718-.03125.023437-.0625.039062-.09375l15.15625-36.601562c6.101563-14.730469 13.722656-28.828125 22.679688-42.011719 4.589844 1.390625 9.550781 1.484375 14.421875.132813 2.621093-.722656 5.382812.421875 6.722656 2.785156 2.492187 4.402344 6.066406 7.84375 10.292969 10.105469-2.988282 15.65625-7.570313 31.011719-13.671875 45.742187l-15.164063 36.613282c-.007812.019531-.015625.039062-.023437.058593l-3.25 7.84375c-8.769531 21.171875-24.210938 38.316407-44.050781 49.152344zm88.414062 17.585937c-14.183594-17.605468-21.890625-39.351562-21.890625-62.269531v-6.464843l14.441406-34.867188c2.777344-6.703125 5.253907-13.527344 7.449219-20.441406 2.191406 6.914062 4.667969 13.738281 7.445312 20.441406l14.441407 34.867188v6.464843c.003906 22.917969-7.703125 44.667969-21.886719 62.269531zm88.414062-17.585937c-19.839843-10.835937-35.28125-27.980469-44.050781-49.152344l-3.246093-7.839843c-.011719-.019532-.019532-.042969-.027344-.0625l-15.167969-36.613282c-6.101563-14.730468-10.679687-30.085937-13.667969-45.742187 4.226563-2.261719 7.800782-5.703125 10.292969-10.105469 1.339844-2.363281 4.097656-3.507812 6.71875-2.78125 4.875 1.351562 9.835937 1.253906 14.425781-.136719 8.957032 13.1875 16.578125 27.285157 22.675782 42.011719l15.15625 36.589844c.015624.039062.035156.078125.050781.117187l3.234375 7.808594c8.769531 21.171875 9.972656 44.214844 3.605468 65.90625zm15.445313-78.636719-4.570313-4.574218-14.441406-34.867188c-2.777344-6.699219-5.851562-13.277344-9.191406-19.71875 6.441406 3.339844 13.019531 6.414062 19.722656 9.191406l34.863282 14.441406 4.574218 4.570313c16.207032 16.207031 26.136719 37.03125 28.554688 59.507813-22.476563-2.417969-43.304688-12.34375-59.511719-28.550782zm109.59375-46.402344c-21.691406 6.367188-44.734375 5.164063-65.90625-3.605468l-7.835937-3.246094c-.023438-.007812-.046876-.019531-.070313-.027344l-36.609375-15.164062c-14.730469-6.101563-28.824219-13.722656-42.011719-22.679688 1.390625-4.585937 1.484375-9.546875.132813-14.421875-.722656-2.617187.421875-5.382812 2.785156-6.71875 4.402344-2.492187 7.84375-6.070312 10.105469-10.296875 15.65625 2.988282 31.011719 7.570313 45.742187 13.671875l36.613282 15.164063c.019531.007812.039062.015625.058593.023437l7.84375 3.25c21.171875 8.769531 38.316407 24.210938 49.152344 44.050781zm-44.683594-66.523437h-6.464843l-34.867188-14.441406c-6.703125-2.777344-13.527344-5.253907-20.441406-7.449219 6.914062-2.191406 13.738281-4.667969 20.441406-7.445312l34.867188-14.441407h6.464843c22.917969 0 44.667969 7.703125 62.269531 21.890625-17.601562 14.179688-39.351562 21.886719-62.269531 21.886719zm0 0"/><path d="m244.519531 228.285156c-7.402343 3.066406-13.167969 8.832032-16.234375 16.234375-3.066406 7.402344-3.066406 15.558594 0 22.960938 3.066406 7.402343 8.832032 13.167969 16.234375 16.234375 3.703125 1.535156 7.589844 2.300781 11.480469 2.300781s7.777344-.765625 11.480469-2.300781c7.402343-3.066406 13.167969-8.832032 16.234375-16.234375 3.066406-7.402344 3.066406-15.558594 0-22.960938-3.066406-7.402343-8.832032-13.167969-16.234375-16.238281-7.40625-3.0625-15.554688-3.0625-22.960938.003906zm20.71875 23.886719c1.023438 2.46875 1.023438 5.1875 0 7.65625-1.019531 2.46875-2.941406 4.390625-5.414062 5.410156-2.46875 1.023438-5.183594 1.023438-7.652344 0-2.46875-1.019531-4.390625-2.941406-5.410156-5.414062-1.023438-2.464844-1.023438-5.183594 0-7.652344 1.019531-2.46875 2.941406-4.390625 5.414062-5.410156 1.230469-.511719 2.527344-.769531 3.824219-.769531s2.59375.257812 3.828125.769531c2.46875 1.023437 4.390625 2.941406 5.410156 5.410156zm0 0"/><path d="m350.140625 38.730469c2.628906 0 5.210937-1.070313 7.070313-2.929688 1.859374-1.859375 2.929687-4.441406 2.929687-7.070312 0-2.640625-1.070313-5.210938-2.929687-7.082031-1.859376-1.859376-4.441407-2.917969-7.070313-2.917969s-5.210937 1.058593-7.070313 2.917969c-1.859374 1.863281-2.929687 4.441406-2.929687 7.082031 0 2.628906 1.070313 5.210937 2.929687 7.070312 1.859376 1.859375 4.441407 2.929688 7.070313 2.929688zm0 0"/></svg>