<svg height="512" viewBox="0 0 64 64" width="512" xmlns="http://www.w3.org/2000/svg"><g id="Flat"><g id="Color_copy" data-name="Color copy"><g><path d="m38 61h-4a53.847 53.847 0 0 1 0-40h4a53.847 53.847 0 0 0 0 40z" fill="#a1d51c"/><path d="m32.5 46.02a53.818 53.818 0 0 1 .38-14.839 4.3 4.3 0 0 1 2.92-3.359 53.979 53.979 0 0 1 2.2-6.822h-4a53.847 53.847 0 0 0 0 40h4a53.844 53.844 0 0 1 -3.378-12.951 2.289 2.289 0 0 1 -2.122-2.029z" fill="#7ab92d"/><path d="m38 61h-6l-5.365-4.982a33.864 33.864 0 0 1 -10.427-19.665l-.208-1.353h4a33.863 33.863 0 0 0 10.156 18.647z" fill="#a1d51c"/><path d="m30.275 53.757a3.592 3.592 0 0 1 -3.863-1.006 33.9 33.9 0 0 1 -5.186-7.736 3.6 3.6 0 0 1 .507-3.926 33.894 33.894 0 0 1 -1.733-6.089h-4l.208 1.353a33.864 33.864 0 0 0 10.427 19.665l5.365 4.982h6z" fill="#7ab92d"/><g><path d="m34.408 9.044-.426 2.415 7.878 1.389.019-1.959a19.812 19.812 0 0 1 1.721-7.889l-2.692.19a7.1 7.1 0 0 0 -6.5 5.854z" fill="#cc5144"/><path d="m35.026 22.813-1.5-.265a5.527 5.527 0 0 1 -3.8-8.252l1.235-2.096a5.527 5.527 0 0 0 .539-4.383l-1.227-4.117a12 12 0 0 1 9.734 13.9l-.347 1.97a4 4 0 0 1 -4.634 3.243z" fill="#f8664f"/><path d="m31.993 15.7a5.461 5.461 0 0 1 .731-3.405l1.237-2.095a5.527 5.527 0 0 0 .539-4.383l-.181-.607a11.936 11.936 0 0 0 -4.046-1.51l1.227 4.117a5.527 5.527 0 0 1 -.538 4.385l-1.238 2.098a5.527 5.527 0 0 0 3.8 8.252l1.5.265a4 4 0 0 0 4.634-3.245l.347-1.97a11.942 11.942 0 0 0 -1.45-8.122 12 12 0 0 0 -6.562 6.22z" fill="#cc5144"/><path d="m38.5 23.425a5.526 5.526 0 0 0 6.392-6.454l-.446-2.392a5.529 5.529 0 0 1 .994-4.3l2.56-3.456a12 12 0 0 0 -13.9 9.734l-.083.466a5.526 5.526 0 0 0 4.483 6.402z" fill="#f89c8d"/><path d="m40.5 20.425a5.526 5.526 0 0 1 -4.483-6.4l.083-.466a11.95 11.95 0 0 1 .957-2.994 11.922 11.922 0 0 0 -2.957 5.992l-.083.466a5.526 5.526 0 0 0 4.483 6.4 5.522 5.522 0 0 0 6.3-4.048 5.464 5.464 0 0 1 -4.3 1.05z" fill="#f8664f"/></g><g><path d="m19.453 25.044.425 2.415-7.878 1.389-.018-1.959a19.846 19.846 0 0 0 -1.718-7.889l2.691.19a7.106 7.106 0 0 1 6.498 5.854z" fill="#cc5144"/><path d="m18.834 38.813 1.5-.265a5.527 5.527 0 0 0 3.8-8.252l-1.234-2.096a5.527 5.527 0 0 1 -.538-4.385l1.226-4.12a12 12 0 0 0 -9.734 13.9l.347 1.97a4 4 0 0 0 4.633 3.248z" fill="#f8664f"/><path d="m22.442 33.224a11.982 11.982 0 0 0 -7.137-7.743 11.941 11.941 0 0 0 -1.452 8.119l.347 1.97a4 4 0 0 0 4.634 3.245l1.5-.265a5.53 5.53 0 0 0 4.346-7 5.458 5.458 0 0 1 -2.238 1.674z" fill="#cc5144"/><path d="m15.362 39.425a5.526 5.526 0 0 1 -6.392-6.454l.445-2.392a5.521 5.521 0 0 0 -.994-4.3l-2.561-3.456a12 12 0 0 1 13.9 9.734l.082.466a5.526 5.526 0 0 1 -4.48 6.402z" fill="#f89c8d"/><path d="m17.362 36.425a5.526 5.526 0 0 1 -6.392-6.454l.445-2.392a5.521 5.521 0 0 0 -.994-4.3l-.317-.427a11.924 11.924 0 0 0 -4.244-.025l2.561 3.452a5.521 5.521 0 0 1 .994 4.3l-.445 2.392a5.523 5.523 0 0 0 10.774 2.409 5.5 5.5 0 0 1 -2.382 1.045z" fill="#f8664f"/></g><path d="m48 31-2.677 8.03a17.721 17.721 0 0 1 -4.282 6.929l-1.849 1.849a17.727 17.727 0 0 0 -5.192 12.535v.657h4l1.5-3a17.729 17.729 0 0 1 4-5.249 17.73 17.73 0 0 0 5.52-16.651z" fill="#c4f236"/><path d="m21.39 60.668c.428.091.848.21 1.267.332h9.785a17.732 17.732 0 0 0 -9.8-6.767l-2.524-.676a17.733 17.733 0 0 1 -7.174-3.86l-6.332-5.616 1.667 4.927a17.728 17.728 0 0 0 13.111 11.66z" fill="#c4f236"/><g fill="#a1d51c"><path d="m26.156 59a13.177 13.177 0 0 1 -2.753-.329h-.013a17.723 17.723 0 0 1 -12.929-11.177l-3.849-3.413 1.667 4.927a17.448 17.448 0 0 0 12.984 11.634c.472.094.934.224 1.394.358h9.785a17.83 17.83 0 0 0 -1.694-2z"/><path d="m40.422 49.629q.37-.422.771-.822l1.848-1.848a17.721 17.721 0 0 0 4.282-6.929l1.552-4.655-.875-4.375-2.677 8.03a17.721 17.721 0 0 1 -4.282 6.929l-1.848 1.848a17.728 17.728 0 0 0 -5.193 12.536v.657h4l1.5-3a17.7 17.7 0 0 1 1.677-2.7 3.833 3.833 0 0 1 -.755-5.671z"/></g></g></g></g></svg>